<svg width="18" height="18" viewBox="0 0 18 18" fill="none" xmlns="http://www.w3.org/2000/svg">
<path fill-rule="evenodd" clip-rule="evenodd" d="M3.99902 5.64258L4.4965 11.5595C4.5328 12.0149 4.90488 12.3565 5.35945 12.3565H5.36275H14.3644H14.366C14.7958 12.3565 15.163 12.0364 15.224 11.6115L16.0078 6.20028C16.0259 6.07158 15.9937 5.94288 15.9154 5.83893C15.8378 5.73415 15.724 5.6665 15.5953 5.64835C15.4228 5.65495 8.26759 5.64505 3.99902 5.64258ZM5.3576 13.5935C4.27107 13.5935 3.35119 12.7454 3.26291 11.6606L2.50721 2.67298L1.26393 2.45848C0.926505 2.39908 0.701279 2.0798 0.75903 1.74237C0.81843 1.40495 1.14431 1.1855 1.47431 1.2383L3.19031 1.5353C3.46669 1.58397 3.67707 1.81332 3.70099 2.09382L3.89487 4.40466C15.6726 4.40961 15.7106 4.41538 15.7675 4.42198C16.227 4.48881 16.6313 4.72888 16.9068 5.09849C17.1824 5.46726 17.2979 5.92184 17.2319 6.37724L16.4489 11.7876C16.3013 12.8172 15.407 13.5935 14.3675 13.5935H14.3633H5.3642H5.3576Z" fill="white"/>
<path fill-rule="evenodd" clip-rule="evenodd" d="M13.0395 8.69063H10.7525C10.4102 8.69063 10.1338 8.41343 10.1338 8.07188C10.1338 7.73033 10.4102 7.45312 10.7525 7.45312H13.0395C13.381 7.45312 13.6582 7.73033 13.6582 8.07188C13.6582 8.41343 13.381 8.69063 13.0395 8.69063Z" fill="white"/>
<path fill-rule="evenodd" clip-rule="evenodd" d="M5.00236 15.835C5.25069 15.835 5.45116 16.0354 5.45116 16.2838C5.45116 16.5321 5.25069 16.7334 5.00236 16.7334C4.75321 16.7334 4.55273 16.5321 4.55273 16.2838C4.55273 16.0354 4.75321 15.835 5.00236 15.835Z" fill="white"/>
<mask id="mask0_1605_45706" style="mask-type:alpha" maskUnits="userSpaceOnUse" x="4" y="15" width="2" height="2">
<path fill-rule="evenodd" clip-rule="evenodd" d="M4.55273 16.2838C4.55273 16.5329 4.75321 16.7342 5.00319 16.7342C5.25151 16.7342 5.45199 16.5329 5.45199 16.2838C5.45199 16.0354 5.25151 15.835 5.00319 15.835C4.75321 15.835 4.55273 16.0354 4.55273 16.2838Z" fill="white"/>
</mask>
<g mask="url(#mask0_1605_45706)">
<path fill-rule="evenodd" clip-rule="evenodd" d="M0.427795 20.8584H9.57626V11.7099H0.427795V20.8584Z" fill="white"/>
</g>
<path fill-rule="evenodd" clip-rule="evenodd" d="M5.00437 16.1161C4.91115 16.1161 4.83525 16.192 4.83525 16.2852C4.83525 16.4725 5.17432 16.4725 5.17432 16.2852C5.17432 16.192 5.0976 16.1161 5.00437 16.1161ZM5.00212 17.3527C4.41307 17.3527 3.93457 16.8734 3.93457 16.2844C3.93457 15.6953 4.41307 15.2168 5.00212 15.2168C5.59118 15.2168 6.0705 15.6953 6.0705 16.2844C6.0705 16.8734 5.59118 17.3527 5.00212 17.3527Z" fill="white"/>
<path fill-rule="evenodd" clip-rule="evenodd" d="M14.31 15.835C14.5583 15.835 14.7596 16.0354 14.7596 16.2838C14.7596 16.5321 14.5583 16.7334 14.31 16.7334C14.0608 16.7334 13.8604 16.5321 13.8604 16.2838C13.8604 16.0354 14.0608 15.835 14.31 15.835Z" fill="white"/>
<mask id="mask1_1605_45706" style="mask-type:alpha" maskUnits="userSpaceOnUse" x="13" y="15" width="2" height="2">
<path fill-rule="evenodd" clip-rule="evenodd" d="M13.8604 16.2838C13.8604 16.5329 14.0608 16.7342 14.31 16.7342C14.5575 16.7342 14.7596 16.5329 14.7596 16.2838C14.7596 16.0354 14.5575 15.835 14.31 15.835C14.0608 15.835 13.8604 16.0354 13.8604 16.2838Z" fill="white"/>
</mask>
<g mask="url(#mask1_1605_45706)">
<path fill-rule="evenodd" clip-rule="evenodd" d="M9.73541 20.8584H18.8847V11.7099H9.73541V20.8584Z" fill="white"/>
</g>
<path fill-rule="evenodd" clip-rule="evenodd" d="M14.3101 16.1158C14.2177 16.1158 14.1418 16.1917 14.1418 16.2849C14.1426 16.4739 14.4809 16.4722 14.4801 16.2849C14.4801 16.1917 14.4033 16.1158 14.3101 16.1158ZM14.3083 17.3527C13.7192 17.3527 13.2407 16.8734 13.2407 16.2844C13.2407 15.6953 13.7192 15.2168 14.3083 15.2168C14.8982 15.2168 15.3775 15.6953 15.3775 16.2844C15.3775 16.8734 14.8982 17.3527 14.3083 17.3527Z" fill="white"/>
</svg>
