<svg version="1.2" xmlns="http://www.w3.org/2000/svg" viewBox="0 0 355 81" width="355" height="81"><defs><clipPath clipPathUnits="userSpaceOnUse" id="cp1"><path d="m-14-23h375v812h-375z"/></clipPath></defs><style>.a{fill:#fff}</style><g clip-path="url(#cp1)"><path class="a" d="m47.6 77.2c0.5-0.5 0.6-1.3 0.6-1.3 0 0 0.2 0.8 0.6 1.3 0.5 0.4 1.2 0.5 1.2 0.5 0 0-0.7 0-1.2 0.5-0.4 0.4-0.6 1.3-0.6 1.3 0 0-0.2-0.8-0.6-1.3-0.5-0.4-1.2-0.5-1.2-0.5 0 0 0.8-0.1 1.2-0.5zm47-55c0.5-0.4 0.6-1.2 0.6-1.2 0 0 0.2 0.8 0.6 1.2 0.5 0.5 1.2 0.6 1.2 0.6 0 0-0.7 0-1.2 0.4-0.4 0.5-0.6 1.4-0.6 1.4 0 0-0.2-0.9-0.6-1.3-0.5-0.5-1.2-0.5-1.2-0.5 0 0 0.8-0.1 1.2-0.6zm-93.2-8.4c0.4-0.4 0.6-1.2 0.6-1.2 0 0 0.2 0.8 0.6 1.2 0.4 0.5 1.2 0.6 1.2 0.6 0 0-0.8 0-1.2 0.4-0.4 0.5-0.6 1.4-0.6 1.4 0 0-0.2-0.9-0.6-1.3-0.5-0.5-1.2-0.5-1.2-0.5 0 0 0.8-0.1 1.2-0.6zm332.8-12.4c0.5-0.4 0.7-1.3 0.7-1.3 0 0 0.1 0.9 0.6 1.3 0.5 0.5 1.2 0.6 1.2 0.6 0 0-0.7 0-1.2 0.5-0.5 0.4-0.6 1.4-0.6 1.4 0 0-0.2-0.9-0.7-1.4-0.5-0.5-1.2-0.5-1.2-0.5 0 0 0.8-0.1 1.2-0.6zm18 56c0.5-0.4 0.7-1.3 0.7-1.3 0 0 0.1 0.9 0.6 1.3 0.5 0.5 1.2 0.6 1.2 0.6 0 0-0.7 0-1.2 0.5-0.5 0.4-0.6 1.4-0.6 1.4 0 0-0.2-0.9-0.7-1.4-0.5-0.5-1.2-0.5-1.2-0.5 0 0 0.8-0.1 1.2-0.6zm-182.2 16.7c0.7-0.8 1-2.1 1-2.1 0 0 0.3 1.3 1 2.1 0.8 0.7 2 0.9 2 0.9 0 0-1.2 0-2 0.8-0.7 0.7-1 2.2-1 2.2 0 0-0.3-1.4-1.1-2.2-0.7-0.7-1.9-0.8-1.9-0.8 0 0 1.2-0.2 2-0.9zm99 4.3c0.5-0.5 0.7-1.4 0.7-1.4 0 0 0.2 0.9 0.7 1.4 0.5 0.5 1.3 0.6 1.3 0.6 0 0-0.8 0-1.3 0.5-0.5 0.5-0.7 1.5-0.7 1.5 0 0-0.2-1-0.7-1.5-0.5-0.5-1.3-0.5-1.3-0.5 0 0 0.8-0.1 1.3-0.6zm-60.2-61.1c0.4-0.4 0.5-1.1 0.5-1.1 0 0 0.2 0.7 0.6 1.1 0.4 0.4 1.1 0.5 1.1 0.5 0 0-0.7 0-1.1 0.5-0.4 0.4-0.6 1.2-0.6 1.2 0 0-0.1-0.8-0.6-1.2-0.4-0.4-1-0.5-1-0.5 0 0 0.7-0.1 1.1-0.5zm105 4.8c0.4-0.4 0.5-1.1 0.5-1.1 0 0 0.2 0.7 0.6 1.1 0.4 0.5 1.1 0.6 1.1 0.6 0 0-0.7 0-1.1 0.4-0.4 0.4-0.6 1.2-0.6 1.2 0 0-0.1-0.8-0.6-1.2-0.4-0.4-1-0.4-1-0.4 0 0 0.7-0.1 1.1-0.6z"/></g></svg>