<svg xmlns="http://www.w3.org/2000/svg" width="344.16" height="51.165" viewBox="16.426 20.885 344.16 51.165"><g data-name="Stars"><path d="M136.443 23.658a.658.658 0 0 0-.017-.002c.002 0 .418-.057.814-.274a1.64 1.64 0 0 0 .37-.27c.446-.443.597-1.228.597-1.228 0 .003.16.785.604 1.228a1.41 1.41 0 0 0 .098.089c.403.332.957.436 1.06.453a.785.785 0 0 0 .017.002.807.807 0 0 0-.026.002 2.119 2.119 0 0 0-.867.249 1.325 1.325 0 0 0-.282.214 1.197 1.197 0 0 0-.014.014c-.397.412-.562 1.167-.587 1.292a1.132 1.132 0 0 0-.003.018 1.361 1.361 0 0 0-.006-.026c-.036-.144-.23-.867-.629-1.268-.404-.407-1.02-.483-1.13-.493Z" fill="#fff" fill-rule="evenodd" data-name="Path 2569"/><path d="M16.443 59.879a.658.658 0 0 0-.017-.002c.002 0 .418-.058.814-.274a1.64 1.64 0 0 0 .37-.27c.446-.444.597-1.228.597-1.228 0 .002.16.785.604 1.227a1.41 1.41 0 0 0 .098.09c.403.332.957.436 1.06.453a.785.785 0 0 0 .017.002.807.807 0 0 0-.026.001 2.119 2.119 0 0 0-.867.25 1.325 1.325 0 0 0-.282.213 1.197 1.197 0 0 0-.014.014c-.397.413-.562 1.168-.587 1.293a1.132 1.132 0 0 0-.003.017 1.361 1.361 0 0 0-.006-.025c-.036-.144-.23-.868-.629-1.269-.404-.406-1.02-.482-1.13-.492Z" fill="#fff" fill-rule="evenodd" data-name="Path 2574"/><path d="M23.366 23.874a1.107 1.107 0 0 0-.028-.002 1.642 1.642 0 0 0 .044-.007 4.524 4.524 0 0 0 1.328-.456 2.765 2.765 0 0 0 .624-.455 3.111 3.111 0 0 0 .553-.786 5.473 5.473 0 0 0 .447-1.254 1.613 1.613 0 0 0 .006-.03c0 .004.13.644.461 1.284a3.162 3.162 0 0 0 .554.786c.75.747 1.983.918 1.983.918-.004 0-1.234.03-1.983.782a2.014 2.014 0 0 0-.022.024c-.731.76-.993 2.207-.993 2.207a2.297 2.297 0 0 0-.01-.043 6.547 6.547 0 0 0-.468-1.274 3.37 3.37 0 0 0-.592-.864 2.296 2.296 0 0 0-.24-.209c-.663-.502-1.5-.605-1.664-.62Z" fill="#fff" fill-rule="evenodd" data-name="Path 2550"/><path d="M90.454 28.873a1.107 1.107 0 0 0-.028-.002 1.642 1.642 0 0 0 .044-.007 4.524 4.524 0 0 0 1.328-.456 2.765 2.765 0 0 0 .624-.455 3.111 3.111 0 0 0 .553-.786 5.473 5.473 0 0 0 .447-1.254 1.613 1.613 0 0 0 .006-.03c0 .004.13.644.461 1.284a3.162 3.162 0 0 0 .554.786c.75.747 1.983.918 1.983.918-.005 0-1.234.03-1.983.782a2.014 2.014 0 0 0-.023.024c-.73.76-.992 2.207-.992 2.207a2.297 2.297 0 0 0-.01-.043 6.547 6.547 0 0 0-.468-1.274 3.37 3.37 0 0 0-.593-.864 2.296 2.296 0 0 0-.24-.209c-.662-.502-1.499-.605-1.663-.62Z" fill="#fff" fill-rule="evenodd" data-name="Path 2547"/><path d="M145.454 64.373a1.107 1.107 0 0 0-.028-.002 1.642 1.642 0 0 0 .044-.007 4.524 4.524 0 0 0 1.328-.456 2.765 2.765 0 0 0 .624-.455 3.111 3.111 0 0 0 .553-.786 5.473 5.473 0 0 0 .447-1.254 1.613 1.613 0 0 0 .006-.03c0 .004.13.644.461 1.284a3.162 3.162 0 0 0 .554.786c.75.747 1.983.918 1.983.918-.005 0-1.234.03-1.983.782a2.014 2.014 0 0 0-.023.024c-.73.76-.992 2.207-.992 2.207a2.297 2.297 0 0 0-.01-.043 6.547 6.547 0 0 0-.468-1.274 3.37 3.37 0 0 0-.593-.864 2.296 2.296 0 0 0-.24-.209c-.662-.502-1.499-.605-1.663-.62Z" fill="#fff" fill-rule="evenodd" data-name="Path 2568"/><path d="M313.728 65.02a.687.687 0 0 0-.018-.001 1.017 1.017 0 0 0 .027-.004c.102-.017.47-.09.823-.282a1.713 1.713 0 0 0 .386-.282 1.926 1.926 0 0 0 .342-.486 3.39 3.39 0 0 0 .277-.777 1 1 0 0 0 .003-.018 1.247 1.247 0 0 0 .006.028c.034.146.21.841.623 1.253a1.479 1.479 0 0 0 .104.093c.42.347.998.455 1.106.472a.82.82 0 0 0 .018.003.843.843 0 0 0-.027.001c-.11.007-.531.045-.908.261a1.387 1.387 0 0 0-.293.222 1.248 1.248 0 0 0-.014.015c-.452.47-.615 1.367-.615 1.367a1.425 1.425 0 0 0-.006-.027 4.057 4.057 0 0 0-.289-.789 2.085 2.085 0 0 0-.367-.534c-.421-.424-1.064-.503-1.178-.514Z" fill="#fff" fill-rule="evenodd" data-name="Path 2551"/><path d="M232.426 38.843s.656.044 1.074.463c.416.418.594 1.211.594 1.211a1.058 1.058 0 0 1 .003-.017c.023-.117.178-.83.555-1.216a1.112 1.112 0 0 1 .006-.006c.415-.418 1.1-.435 1.102-.435a.737.737 0 0 1-.016-.002c-.105-.018-.707-.13-1.086-.508-.415-.414-.564-1.147-.564-1.15 0 0-.07.357-.252.714a1.731 1.731 0 0 1-.307.436 1.536 1.536 0 0 1-.347.253c-.37.203-.76.257-.762.257Z" fill="#fff" fill-rule="evenodd" data-name="Path 2552"/><path d="M211.717 58.654s.656.044 1.074.462c.416.419.594 1.212.594 1.212a1.058 1.058 0 0 1 .003-.017c.023-.118.178-.831.555-1.216a1.112 1.112 0 0 1 .006-.007c.416-.418 1.1-.434 1.102-.434a.737.737 0 0 1-.016-.003c-.105-.017-.707-.13-1.086-.507-.415-.415-.564-1.147-.564-1.15 0 0-.07.357-.252.713a1.731 1.731 0 0 1-.307.437 1.536 1.536 0 0 1-.346.253c-.371.202-.761.256-.763.257Z" fill="#fff" fill-rule="evenodd" data-name="Path 2570"/><path d="M346.252 70.376s.656.044 1.074.463c.416.418.594 1.211.594 1.211a1.058 1.058 0 0 1 .003-.016c.024-.118.179-.832.555-1.216a1.112 1.112 0 0 1 .006-.007c.416-.418 1.1-.435 1.102-.435a.737.737 0 0 1-.016-.002c-.105-.017-.707-.13-1.086-.508-.415-.414-.564-1.147-.564-1.15 0 0-.07.357-.252.714a1.731 1.731 0 0 1-.307.436 1.536 1.536 0 0 1-.346.253c-.371.203-.761.257-.763.257Z" fill="#fff" fill-rule="evenodd" data-name="Path 2575"/><path d="M282.252 55.71s.656.044 1.074.463c.416.418.594 1.211.594 1.211a1.058 1.058 0 0 1 .003-.016c.024-.118.179-.832.555-1.216a1.112 1.112 0 0 1 .006-.007c.416-.418 1.1-.435 1.102-.435a.737.737 0 0 1-.016-.002c-.105-.017-.707-.13-1.086-.508-.415-.414-.564-1.147-.564-1.15 0 0-.07.357-.252.714a1.731 1.731 0 0 1-.307.436 1.536 1.536 0 0 1-.346.253c-.371.203-.761.257-.763.257Z" fill="#fff" fill-rule="evenodd" data-name="Path 2572"/><path d="M357.252 42.176s.656.044 1.074.463c.416.418.594 1.211.594 1.211a1.058 1.058 0 0 1 .003-.017c.024-.117.179-.83.555-1.216a1.112 1.112 0 0 1 .006-.006c.416-.418 1.1-.435 1.102-.435a.737.737 0 0 1-.016-.002c-.105-.018-.707-.13-1.086-.508-.415-.414-.564-1.147-.564-1.15 0 0-.07.357-.252.714a1.731 1.731 0 0 1-.307.436 1.536 1.536 0 0 1-.346.253c-.371.203-.761.257-.763.257Z" fill="#fff" fill-rule="evenodd" data-name="Path 2573"/><path d="M303.454 24.873a1.107 1.107 0 0 0-.028-.002 1.642 1.642 0 0 0 .044-.007 4.524 4.524 0 0 0 1.328-.456 2.765 2.765 0 0 0 .624-.455 3.111 3.111 0 0 0 .553-.786 5.473 5.473 0 0 0 .447-1.254 1.613 1.613 0 0 0 .006-.03c0 .004.13.644.461 1.284a3.162 3.162 0 0 0 .554.786c.75.747 1.983.918 1.983.918-.005 0-1.234.03-1.983.782a2.014 2.014 0 0 0-.023.024c-.73.76-.992 2.207-.992 2.207a2.297 2.297 0 0 0-.01-.043 6.547 6.547 0 0 0-.468-1.274 3.37 3.37 0 0 0-.593-.864 2.296 2.296 0 0 0-.24-.209c-.662-.502-1.499-.605-1.663-.62Z" fill="#fff" fill-rule="evenodd" data-name="Path 2549"/><path d="M64.443 58.097a.658.658 0 0 0-.017-.001c.002 0 .418-.058.814-.274a1.64 1.64 0 0 0 .37-.27c.446-.444.597-1.229.597-1.229 0 .003.16.786.604 1.228a1.41 1.41 0 0 0 .098.09c.403.332.957.435 1.06.452a.785.785 0 0 0 .017.003.807.807 0 0 0-.026.001 2.119 2.119 0 0 0-.867.25 1.325 1.325 0 0 0-.282.213 1.197 1.197 0 0 0-.014.014c-.397.413-.562 1.167-.587 1.292a1.132 1.132 0 0 0-.003.018 1.361 1.361 0 0 0-.006-.025c-.036-.145-.23-.868-.629-1.269-.404-.406-1.02-.482-1.13-.493Z" fill="#fff" fill-rule="evenodd" data-name="Path 25"/></g></svg>