<svg width="22" height="22" viewBox="0 0 22 22" fill="none" xmlns="http://www.w3.org/2000/svg">
<mask id="mask0_514_15610" style="mask-type:alpha" maskUnits="userSpaceOnUse" x="0" y="0" width="22" height="22">
<path fill-rule="evenodd" clip-rule="evenodd" d="M0 0H21.493V21.4938H0V0Z" fill="white"/>
</mask>
<g mask="url(#mask0_514_15610)">
<path fill-rule="evenodd" clip-rule="evenodd" d="M5.10495 18.675C5.68495 18.675 6.23195 18.895 6.81095 19.128C10.358 20.768 14.5529 20.022 17.2859 17.29C20.892 13.682 20.892 7.813 17.2859 4.207C15.5399 2.461 13.2179 1.5 10.7459 1.5C8.27295 1.5 5.94995 2.462 4.20495 4.208C1.47095 6.94 0.72695 11.135 2.35195 14.648C2.58595 15.227 2.81195 15.791 2.81195 16.377C2.81195 16.962 2.61095 17.551 2.43395 18.071C2.28795 18.499 2.06695 19.145 2.20895 19.287C2.34795 19.431 2.99795 19.204 3.42695 19.057C3.94195 18.881 4.52595 18.679 5.10495 18.675ZM10.7244 21.494C9.19644 21.494 7.65844 21.171 6.21944 20.505C5.79544 20.335 5.39844 20.175 5.11344 20.175C4.78544 20.177 4.34444 20.329 3.91844 20.476C3.04444 20.776 1.95644 21.15 1.15144 20.348C0.349437 19.545 0.719437 18.46 1.01744 17.587C1.16444 17.157 1.31544 16.713 1.31544 16.377C1.31544 16.101 1.18244 15.749 0.978437 15.242C-0.894563 11.197 -0.0285628 6.322 3.14844 3.147C5.17644 1.118 7.87544 0 10.7484 0C13.6214 0 16.3214 1.117 18.3494 3.146C22.5414 7.338 22.5414 14.158 18.3494 18.35C16.2944 20.406 13.5274 21.494 10.7244 21.494Z" fill="#787C80"/>
</g>
<path fill-rule="evenodd" clip-rule="evenodd" d="M14.6993 12.1641C14.1473 12.1641 13.6953 11.7171 13.6953 11.1641C13.6953 10.6111 14.1383 10.1641 14.6903 10.1641H14.6993C15.2513 10.1641 15.6993 10.6111 15.6993 11.1641C15.6993 11.7171 15.2513 12.1641 14.6993 12.1641Z" fill="#787C80"/>
<path fill-rule="evenodd" clip-rule="evenodd" d="M10.6837 12.1641C10.1317 12.1641 9.67969 11.7171 9.67969 11.1641C9.67969 10.6111 10.1217 10.1641 10.6747 10.1641H10.6837C11.2357 10.1641 11.6837 10.6111 11.6837 11.1641C11.6837 11.7171 11.2357 12.1641 10.6837 12.1641Z" fill="#787C80"/>
<path fill-rule="evenodd" clip-rule="evenodd" d="M6.67587 12.1641C6.12387 12.1641 5.67188 11.7171 5.67188 11.1641C5.67188 10.6111 6.11488 10.1641 6.66688 10.1641H6.67587C7.22787 10.1641 7.67587 10.6111 7.67587 11.1641C7.67587 11.7171 7.22787 12.1641 6.67587 12.1641Z" fill="#787C80"/>
</svg>
