<svg width="15" height="16" viewBox="0 0 15 16" fill="none" xmlns="http://www.w3.org/2000/svg">
<path fill-rule="evenodd" clip-rule="evenodd" d="M7.18403 15.4994C6.16778 15.4994 5.17703 15.4881 4.19678 15.4679C2.94278 15.4431 2.07503 14.6301 1.93328 13.3461C1.69703 11.2161 1.29278 6.19563 1.28903 6.14538C1.26353 5.83563 1.49453 5.56413 1.80428 5.53938C2.10953 5.53113 2.38553 5.74563 2.41028 6.05463C2.41403 6.10563 2.81753 11.1089 3.05153 13.2224C3.13178 13.9521 3.52553 14.3286 4.22003 14.3429C6.09503 14.3826 8.00828 14.3849 10.0708 14.3474C10.8088 14.3331 11.2078 13.9641 11.2903 13.2171C11.5228 11.1216 11.9278 6.10563 11.9323 6.05463C11.957 5.74563 12.2308 5.52963 12.5375 5.53938C12.8473 5.56488 13.0783 5.83563 13.0535 6.14538C13.049 6.19638 12.6425 11.2296 12.4085 13.3409C12.263 14.6511 11.3975 15.4484 10.091 15.4724C9.09128 15.4896 8.12678 15.4994 7.18403 15.4994Z" fill="#FF6363"/>
<path fill-rule="evenodd" clip-rule="evenodd" d="M13.531 4.24121H0.8125C0.502 4.24121 0.25 3.98921 0.25 3.67871C0.25 3.36821 0.502 3.11621 0.8125 3.11621H13.531C13.8415 3.11621 14.0935 3.36821 14.0935 3.67871C14.0935 3.98921 13.8415 4.24121 13.531 4.24121" fill="#FF6363"/>
<path fill-rule="evenodd" clip-rule="evenodd" d="M11.079 4.24175C10.2255 4.24175 9.48447 3.6335 9.31647 2.7965L9.13422 1.8845C9.09597 1.74575 8.93772 1.625 8.75772 1.625H5.58297C5.40297 1.625 5.24472 1.74575 5.19897 1.919L5.02422 2.7965C4.85697 3.6335 4.11522 4.24175 3.26172 4.24175C2.95122 4.24175 2.69922 3.98975 2.69922 3.67925C2.69922 3.36875 2.95122 3.11675 3.26172 3.11675C3.58122 3.11675 3.85872 2.88875 3.92172 2.57525L4.10397 1.66325C4.28922 0.96425 4.89447 0.5 5.58297 0.5H8.75772C9.44622 0.5 10.0515 0.96425 10.2292 1.6295L10.4197 2.57525C10.482 2.88875 10.7595 3.11675 11.079 3.11675C11.3895 3.11675 11.6415 3.36875 11.6415 3.67925C11.6415 3.98975 11.3895 4.24175 11.079 4.24175" fill="#FF6363"/>
</svg>
