<svg width="16" height="15" viewBox="0 0 16 15" fill="none" xmlns="http://www.w3.org/2000/svg">
<path fill-rule="evenodd" clip-rule="evenodd" d="M14.5648 14.4531H9.125C8.8145 14.4531 8.5625 14.2011 8.5625 13.8906C8.5625 13.5801 8.8145 13.3281 9.125 13.3281H14.5648C14.8753 13.3281 15.1273 13.5801 15.1273 13.8906C15.1273 14.2011 14.8753 14.4531 14.5648 14.4531Z" fill="#212325"/>
<mask id="mask0_1446_30002" style="mask-type:alpha" maskUnits="userSpaceOnUse" x="0" y="0" width="14" height="15">
<path fill-rule="evenodd" clip-rule="evenodd" d="M0.5 0.25H13.3854V14.4547H0.5V0.25Z" fill="white"/>
</mask>
<g mask="url(#mask0_1446_30002)">
<path fill-rule="evenodd" clip-rule="evenodd" d="M8.83243 1.76416L1.77119 10.5954C1.64294 10.7559 1.59569 10.9629 1.64294 11.1617L2.15369 13.3254L4.43294 13.2969C4.64969 13.2947 4.84994 13.1979 4.98269 13.0329C7.39543 10.0142 11.9952 4.25866 12.1257 4.08991C12.2487 3.89041 12.2967 3.60841 12.2322 3.33691C12.1662 3.05866 11.9929 2.82241 11.7432 2.67166C11.6899 2.63491 10.4262 1.65391 10.3872 1.62316C9.91168 1.24216 9.21793 1.30816 8.83243 1.76416ZM1.70996 14.4547C1.44971 14.4547 1.22321 14.2762 1.16246 14.022L0.548206 11.4187C0.421456 10.8795 0.547456 10.323 0.893206 9.89098L7.95821 1.05448C7.96121 1.05148 7.96346 1.04773 7.96646 1.04473C8.74121 0.118482 10.1422 -0.018018 11.0872 0.740232C11.1247 0.769482 12.3795 1.74448 12.3795 1.74448C12.8355 2.01598 13.1917 2.50123 13.3267 3.07573C13.461 3.64423 13.3635 4.23073 13.0507 4.72648C13.0275 4.76323 13.0072 4.79473 5.86121 13.7347C5.51696 14.1637 5.00096 14.4135 4.44671 14.4202L1.71746 14.4547H1.70996Z" fill="#212325"/>
</g>
<path fill-rule="evenodd" clip-rule="evenodd" d="M11.169 6.76255C11.049 6.76255 10.929 6.7243 10.8263 6.6463L6.73728 3.5053C6.49128 3.3163 6.44478 2.9638 6.63378 2.7163C6.82353 2.4703 7.17603 2.42455 7.42278 2.61355L11.5125 5.7538C11.7585 5.9428 11.805 6.29605 11.6153 6.5428C11.505 6.6868 11.3378 6.76255 11.169 6.76255Z" fill="#212325"/>
</svg>
