<svg width="18" height="19" viewBox="0 0 18 19" fill="none" xmlns="http://www.w3.org/2000/svg">
<path fill-rule="evenodd" clip-rule="evenodd" d="M9 0.73877C13.9706 0.73877 18 4.75833 18 9.71671C18 14.6751 13.9706 18.6947 9 18.6947C4.02944 18.6947 0 14.6751 0 9.71671C0 4.75833 4.02944 0.73877 9 0.73877ZM12.5339 12.4984C11.6385 13.6423 10.482 14.2001 9.00003 14.2001C7.51811 14.2001 6.36155 13.6423 5.46619 12.4984C5.21128 12.1727 4.73996 12.1148 4.41347 12.3691C4.08699 12.6234 4.02897 13.0935 4.28388 13.4192C5.46474 14.9279 7.05818 15.6964 9.00003 15.6964C10.9419 15.6964 12.5353 14.9279 13.7162 13.4192C13.9711 13.0935 13.9131 12.6234 13.5866 12.3691C13.2601 12.1148 12.7888 12.1727 12.5339 12.4984ZM6 6.72406C5.37868 6.72406 4.875 7.39399 4.875 8.22039C4.875 9.04678 5.37868 9.71671 6 9.71671C6.62132 9.71671 7.125 9.04678 7.125 8.22039C7.125 7.39399 6.62132 6.72406 6 6.72406ZM12 6.72406C11.3787 6.72406 10.875 7.39399 10.875 8.22039C10.875 9.04678 11.3787 9.71671 12 9.71671C12.6213 9.71671 13.125 9.04678 13.125 8.22039C13.125 7.39399 12.6213 6.72406 12 6.72406Z" fill="#30C5C9"/>
<path fill-rule="evenodd" clip-rule="evenodd" d="M9 0.73877C13.9706 0.73877 18 4.75833 18 9.71671C18 14.6751 13.9706 18.6947 9 18.6947C4.02944 18.6947 0 14.6751 0 9.71671C0 4.75833 4.02944 0.73877 9 0.73877ZM12.5339 12.4984C11.6385 13.6423 10.482 14.2001 9.00003 14.2001C7.51811 14.2001 6.36155 13.6423 5.46619 12.4984C5.21128 12.1727 4.73996 12.1148 4.41347 12.3691C4.08699 12.6234 4.02897 13.0935 4.28388 13.4192C5.46474 14.9279 7.05818 15.6964 9.00003 15.6964C10.9419 15.6964 12.5353 14.9279 13.7162 13.4192C13.9711 13.0935 13.9131 12.6234 13.5866 12.3691C13.2601 12.1148 12.7888 12.1727 12.5339 12.4984ZM6 6.72406C5.37868 6.72406 4.875 7.39399 4.875 8.22039C4.875 9.04678 5.37868 9.71671 6 9.71671C6.62132 9.71671 7.125 9.04678 7.125 8.22039C7.125 7.39399 6.62132 6.72406 6 6.72406ZM12 6.72406C11.3787 6.72406 10.875 7.39399 10.875 8.22039C10.875 9.04678 11.3787 9.71671 12 9.71671C12.6213 9.71671 13.125 9.04678 13.125 8.22039C13.125 7.39399 12.6213 6.72406 12 6.72406Z" fill="black" fill-opacity="0.2"/>
</svg>
