<svg width="24" height="24" viewBox="0 0 24 24" fill="none" xmlns="http://www.w3.org/2000/svg">
<path fill-rule="evenodd" clip-rule="evenodd" d="M11.75 16.1551C11.336 16.1551 11 15.8191 11 15.4051V8.07812C11 7.66412 11.336 7.32812 11.75 7.32812C12.164 7.32812 12.5 7.66412 12.5 8.07812V15.4051C12.5 15.8191 12.164 16.1551 11.75 16.1551Z" fill="#866EE1"/>
<path fill-rule="evenodd" clip-rule="evenodd" d="M15.4189 12.4922H8.08594C7.67094 12.4922 7.33594 12.1562 7.33594 11.7422C7.33594 11.3282 7.67094 10.9922 8.08594 10.9922H15.4189C15.8329 10.9922 16.1689 11.3282 16.1689 11.7422C16.1689 12.1562 15.8329 12.4922 15.4189 12.4922Z" fill="#866EE1"/>
<path fill-rule="evenodd" clip-rule="evenodd" d="M7.064 2.5C4.292 2.5 2.5 4.397 2.5 7.335V16.165C2.5 19.103 4.292 21 7.064 21H16.436C19.209 21 21 19.103 21 16.165V7.335C21 4.397 19.209 2.5 16.436 2.5H7.064ZM16.436 22.5H7.064C3.437 22.5 1 19.954 1 16.165V7.335C1 3.546 3.437 1 7.064 1H16.436C20.063 1 22.5 3.546 22.5 7.335V16.165C22.5 19.954 20.063 22.5 16.436 22.5Z" fill="#866EE1"/>
</svg>
