<svg width="34" height="35" viewBox="0 0 34 35" fill="none" xmlns="http://www.w3.org/2000/svg">
<ellipse cx="16.9999" cy="17.7161" rx="17" ry="16.9583" fill="#866EE1"/>
<mask id="mask0_3_28796" style="mask-type:alpha" maskUnits="userSpaceOnUse" x="2" y="4" width="26" height="27">
<path fill-rule="evenodd" clip-rule="evenodd" d="M14.1085 4.82104L27.5629 16.6105L15.7445 30.032L2.29004 18.2425L14.1085 4.82104Z" fill="white"/>
</mask>
<g mask="url(#mask0_3_28796)">
<path fill-rule="evenodd" clip-rule="evenodd" d="M13.0203 18.279L11.9476 24.5739C11.9005 24.8496 12.0748 24.9987 12.153 25.0501C12.2311 25.1015 12.4364 25.2058 12.6759 25.0559L25.1926 17.1898C25.4132 17.0503 25.4246 16.8334 25.419 16.748C25.4149 16.6639 25.374 16.4562 25.1457 16.3476L11.7377 10.1179C11.4834 9.99999 11.2902 10.1306 11.2193 10.1917C11.1472 10.2541 10.9899 10.4272 11.0698 10.696L12.9359 16.9076L19.8418 16.4253C20.2208 16.3988 20.5503 16.684 20.5775 17.0626C20.6047 17.4413 20.3176 17.7701 19.9386 17.7966L13.0203 18.279ZM11.1874 26.0394C10.7072 25.6186 10.4815 24.9892 10.5906 24.3434L11.7284 17.6691L9.75197 11.09C9.53933 10.3806 9.75537 9.63826 10.3187 9.15266C10.8813 8.66645 11.6482 8.56044 12.3198 8.87217L25.7278 15.1018C26.3445 15.3885 26.7508 15.9849 26.796 16.661C26.8382 17.3405 26.506 17.9884 25.927 18.3517L13.4109 26.2172C12.782 26.6135 12.0076 26.6045 11.3901 26.1938C11.3179 26.1452 11.2509 26.095 11.1874 26.0394Z" fill="white"/>
</g>
</svg>
