<svg width="19" height="18" viewBox="0 0 19 18" fill="none" xmlns="http://www.w3.org/2000/svg">
<path d="M12.9956 12.4071L18.392 7.09954L18.4604 7.02154C18.5617 6.88557 18.6105 6.71765 18.5979 6.54858C18.5854 6.37951 18.5123 6.22064 18.392 6.10114L12.9956 0.79594L12.9212 0.73234C12.4892 0.40834 11.8532 0.72034 11.8532 1.29514V3.85114L11.5832 3.86914C7.30761 4.20754 4.80321 6.91354 4.20561 11.8215C4.12881 12.4515 4.85121 12.8463 5.31921 12.4287C7.03641 10.8951 8.81121 9.94234 10.6532 9.56074C10.9484 9.49954 11.2448 9.45274 11.5436 9.42034L11.8532 9.39274V11.9079L11.8592 12.0063C11.9312 12.5499 12.59 12.8055 12.9956 12.4071ZM11.6708 5.06554L13.0532 4.97314V2.53354L17.1884 6.59914L13.0532 10.6671V8.07874L11.426 8.22514H11.4164C9.37281 8.44474 7.44441 9.26314 5.62401 10.6275C5.98161 9.02074 6.59241 7.81234 7.39521 6.94714C8.39121 5.87314 9.78321 5.21554 11.6708 5.06434V5.06554ZM3.59961 1.80154C2.80396 1.80154 2.0409 2.11761 1.47829 2.68022C0.91568 3.24283 0.599609 4.00589 0.599609 4.80154V14.4015C0.599609 15.1972 0.91568 15.9603 1.47829 16.5229C2.0409 17.0855 2.80396 17.4015 3.59961 17.4015H13.1996C13.9953 17.4015 14.7583 17.0855 15.3209 16.5229C15.8835 15.9603 16.1996 15.1972 16.1996 14.4015V13.2015C16.1996 13.0424 16.1364 12.8898 16.0239 12.7773C15.9114 12.6648 15.7587 12.6015 15.5996 12.6015C15.4405 12.6015 15.2879 12.6648 15.1753 12.7773C15.0628 12.8898 14.9996 13.0424 14.9996 13.2015V14.4015C14.9996 14.8789 14.81 15.3368 14.4724 15.6743C14.1348 16.0119 13.677 16.2015 13.1996 16.2015H3.59961C3.12222 16.2015 2.66438 16.0119 2.32682 15.6743C1.98925 15.3368 1.79961 14.8789 1.79961 14.4015V4.80154C1.79961 4.32415 1.98925 3.86631 2.32682 3.52875C2.66438 3.19118 3.12222 3.00154 3.59961 3.00154H7.19961C7.35874 3.00154 7.51135 2.93833 7.62387 2.8258C7.7364 2.71328 7.79961 2.56067 7.79961 2.40154C7.79961 2.24241 7.7364 2.0898 7.62387 1.97728C7.51135 1.86475 7.35874 1.80154 7.19961 1.80154H3.59961Z" fill="#787C80"/>
</svg>
