<svg width="20" height="19" viewBox="0 0 20 19" fill="none" xmlns="http://www.w3.org/2000/svg">
<mask id="path-1-inside-1_514_24911" fill="white">
<path fill-rule="evenodd" clip-rule="evenodd" d="M4.94692 18.5C4.53392 18.5 4.12392 18.37 3.77292 18.114C3.16692 17.67 2.86992 16.937 2.99892 16.199L3.69492 12.189C3.72092 12.04 3.66992 11.889 3.55992 11.783L0.603916 8.943C0.0599161 8.422 -0.135084 7.652 0.0949161 6.937C0.326916 6.214 0.940916 5.697 1.69792 5.589L5.78592 5C5.94392 4.978 6.07992 4.881 6.14792 4.743L7.97492 1.091C8.31192 0.418 8.99192 0 9.74992 0C10.5079 0 11.1879 0.418 11.5249 1.091L13.3529 4.742C13.4219 4.881 13.5569 4.978 13.7139 5L17.8019 5.589C18.5589 5.697 19.1729 6.214 19.4049 6.937C19.6349 7.652 19.4389 8.422 18.8949 8.943L15.9389 11.783C15.8289 11.889 15.7789 12.04 15.8049 12.188L16.5019 16.199C16.6299 16.938 16.3329 17.671 15.7259 18.114C15.1109 18.565 14.3099 18.626 13.6309 18.272L9.97792 16.379C9.83492 16.305 9.66392 16.305 9.52092 16.379L5.86792 18.273C5.57592 18.425 5.26092 18.5 4.94692 18.5Z"/>
</mask>
<path d="M3.77292 18.114L3.1819 18.9207L3.18365 18.9219L3.77292 18.114ZM2.99892 16.199L3.98398 16.3712L3.98419 16.37L2.99892 16.199ZM3.69492 12.189L2.7098 12.0171L2.70965 12.018L3.69492 12.189ZM3.55992 11.783L4.25381 11.0629L4.25273 11.0619L3.55992 11.783ZM0.603916 8.943L1.29673 8.22188L1.29559 8.22079L0.603916 8.943ZM0.0949161 6.937L1.04688 7.24322L1.0471 7.24254L0.0949161 6.937ZM1.69792 5.589L1.83915 6.57898L1.84052 6.57878L1.69792 5.589ZM5.78592 5L5.648 4.00954L5.64331 4.01022L5.78592 5ZM6.14792 4.743L5.25357 4.29558L5.2509 4.30099L6.14792 4.743ZM7.97492 1.091L7.08075 0.643255L7.08059 0.643591L7.97492 1.091ZM11.5249 1.091L12.4191 0.643297L12.4191 0.643255L11.5249 1.091ZM13.3529 4.742L14.2486 4.29736L14.2471 4.2943L13.3529 4.742ZM13.7139 5L13.8565 4.01021L13.8527 4.00968L13.7139 5ZM17.8019 5.589L17.6593 6.57878L17.6607 6.57898L17.8019 5.589ZM19.4049 6.937L18.4527 7.24254L18.453 7.24322L19.4049 6.937ZM18.8949 8.943L18.2032 8.22079L18.2021 8.22189L18.8949 8.943ZM15.9389 11.783L15.2461 11.0619L15.245 11.0629L15.9389 11.783ZM15.8049 12.188L16.7902 12.0168L16.7898 12.015L15.8049 12.188ZM16.5019 16.199L17.4872 16.0283L17.4872 16.0278L16.5019 16.199ZM15.7259 18.114L15.1364 17.3062L15.1346 17.3076L15.7259 18.114ZM13.6309 18.272L14.0932 17.3853L14.091 17.3841L13.6309 18.272ZM9.97792 16.379L10.438 15.4911L10.4375 15.4909L9.97792 16.379ZM9.52092 16.379L9.06132 15.4909L9.06063 15.4912L9.52092 16.379ZM5.86792 18.273L5.40763 17.3852L5.40618 17.386L5.86792 18.273ZM4.94692 17.5C4.7455 17.5 4.54188 17.4371 4.36218 17.3061L3.18365 18.9219C3.70596 19.3029 4.32233 19.5 4.94692 19.5V17.5ZM4.36393 17.3073C4.06268 17.0866 3.92091 16.732 3.98398 16.3712L2.01385 16.0268C1.81892 17.142 2.27115 18.2534 3.1819 18.9207L4.36393 17.3073ZM3.98419 16.37L4.68019 12.36L2.70965 12.018L2.01365 16.028L3.98419 16.37ZM4.68003 12.3609C4.76486 11.8747 4.59567 11.3923 4.25381 11.0629L2.86602 12.5031C2.74416 12.3857 2.67697 12.2053 2.7098 12.0171L4.68003 12.3609ZM4.25273 11.0619L1.29673 8.22189L-0.0889001 9.66411L2.8671 12.5041L4.25273 11.0619ZM1.29559 8.22079C1.02748 7.96401 0.934319 7.59313 1.04688 7.24322L-0.857043 6.63077C-1.20449 7.71087 -0.907644 8.87999 -0.0877585 9.66521L1.29559 8.22079ZM1.0471 7.24254C1.16133 6.88655 1.45868 6.63326 1.83915 6.57898L1.55668 4.59902C0.423154 4.76074 -0.507495 5.54145 -0.857263 6.63146L1.0471 7.24254ZM1.84052 6.57878L5.92852 5.98978L5.64331 4.01022L1.55531 4.59922L1.84052 6.57878ZM5.92383 5.99044C6.39854 5.92435 6.82533 5.63066 7.04493 5.18501L5.2509 4.30099C5.3345 4.13134 5.4893 4.03165 5.64801 4.00956L5.92383 5.99044ZM7.04225 5.19041L8.86925 1.53841L7.08059 0.643591L5.25359 4.29559L7.04225 5.19041ZM8.86908 1.53874C9.03508 1.20724 9.36711 1 9.74992 1V-1C8.61673 -1 7.58875 -0.371238 7.08075 0.643255L8.86908 1.53874ZM9.74992 1C10.1327 1 10.4648 1.20724 10.6308 1.53874L12.4191 0.643255C11.9111 -0.371237 10.8831 -1 9.74992 -1V1ZM10.6307 1.5387L12.4587 5.1897L14.2471 4.2943L12.4191 0.643297L10.6307 1.5387ZM12.4572 5.18663C12.6753 5.62593 13.0964 5.92323 13.5751 5.99032L13.8527 4.00968C14.0175 4.03277 14.1686 4.13607 14.2486 4.29737L12.4572 5.18663ZM13.5713 5.98978L17.6593 6.57878L17.9445 4.59922L13.8565 4.01022L13.5713 5.98978ZM17.6607 6.57898C18.0412 6.63326 18.3385 6.88655 18.4527 7.24254L20.3571 6.63146C20.0073 5.54145 19.0767 4.76074 17.9432 4.59902L17.6607 6.57898ZM18.453 7.24322C18.5652 7.59212 18.4721 7.96327 18.2032 8.22079L19.5866 9.66521C20.4057 8.88072 20.7046 7.71188 20.3569 6.63077L18.453 7.24322ZM18.2021 8.22189L15.2461 11.0619L16.6317 12.5041L19.5877 9.66411L18.2021 8.22189ZM15.245 11.0629C14.9005 11.3949 14.7353 11.8787 14.82 12.361L16.7898 12.015C16.8226 12.2013 16.7573 12.3831 16.6328 12.5031L15.245 11.0629ZM14.8197 12.3592L15.5167 16.3702L17.4872 16.0278L16.7902 12.0168L14.8197 12.3592ZM15.5166 16.3697C15.5795 16.7329 15.4368 17.087 15.1364 17.3062L16.3154 18.9218C17.229 18.255 17.6803 17.1431 17.4872 16.0283L15.5166 16.3697ZM15.1346 17.3076C14.8276 17.5327 14.4352 17.5636 14.0932 17.3853L13.1686 19.1587C14.1846 19.6884 15.3943 19.5973 16.3173 18.9204L15.1346 17.3076ZM14.091 17.3841L10.438 15.4911L9.51782 17.2669L13.1708 19.1599L14.091 17.3841ZM10.4375 15.4909C10.0063 15.2677 9.49257 15.2677 9.06132 15.4909L9.98051 17.2671C9.83527 17.3423 9.66356 17.3423 9.51832 17.2671L10.4375 15.4909ZM9.06063 15.4912L5.40763 17.3852L6.32821 19.1608L9.9812 17.2668L9.06063 15.4912ZM5.40618 17.386C5.25718 17.4635 5.10062 17.5 4.94692 17.5V19.5C5.42121 19.5 5.89465 19.3865 6.32965 19.16L5.40618 17.386Z" fill="#866EE1" mask="url(#path-1-inside-1_514_24911)"/>
</svg>
