<svg width="19" height="17" viewBox="0 0 19 17" fill="none" xmlns="http://www.w3.org/2000/svg">
<path fill-rule="evenodd" clip-rule="evenodd" d="M5.36799 16.8125C4.9894 16.8125 4.61357 16.6987 4.29182 16.4747C3.73632 16.0862 3.46407 15.4449 3.58232 14.7991L4.22032 11.2904C4.24415 11.16 4.1974 11.0279 4.09657 10.9351L1.3869 8.45012C0.888236 7.99425 0.709486 7.3205 0.920319 6.69487C1.13299 6.06225 1.69582 5.60987 2.38974 5.51537L6.13707 5C6.2819 4.98075 6.40657 4.89587 6.4689 4.77512L8.14365 1.57962C8.45257 0.99075 9.0759 0.625 9.77074 0.625C10.4656 0.625 11.0889 0.99075 11.3978 1.57962L13.0735 4.77425C13.1367 4.89587 13.2605 4.98075 13.4044 5L17.1517 5.51537C17.8457 5.60987 18.4085 6.06225 18.6212 6.69487C18.832 7.3205 18.6523 7.99425 18.1537 8.45012L15.444 10.9351C15.3432 11.0279 15.2973 11.16 15.3212 11.2895L15.9601 14.7991C16.0774 15.4457 15.8052 16.0871 15.2487 16.4747C14.685 16.8694 13.9507 16.9227 13.3283 16.613L9.97974 14.9566C9.84865 14.8919 9.6919 14.8919 9.56082 14.9566L6.21224 16.6139C5.94457 16.7469 5.65582 16.8125 5.36799 16.8125Z" fill="#59D1D4"/>
</svg>
