<svg width="18" height="19" viewBox="0 0 18 19" fill="none" xmlns="http://www.w3.org/2000/svg">
<g clip-path="url(#clip0_1605_45678)">
<path d="M17.0824 10.054L15.7857 7.17767C15.6678 6.91317 15.4765 6.68866 15.2348 6.53114C14.9931 6.37363 14.7113 6.28983 14.4235 6.28983H12.1798V5.41666C12.1798 5.10724 12.0577 4.8105 11.8405 4.59171C11.6233 4.37291 11.3287 4.25 11.0215 4.25H2.57845C2.27126 4.25 1.97665 4.37291 1.75943 4.59171C1.54221 4.8105 1.42017 5.10724 1.42017 5.41666V9.49633C1.41826 9.56033 1.42959 9.62403 1.45341 9.68339C1.47724 9.74276 1.51305 9.7965 1.55858 9.84119C1.60231 9.88837 1.65537 9.92582 1.71434 9.95109C1.77331 9.97637 1.83688 9.98892 1.90096 9.98795C1.96445 9.98942 2.02757 9.97782 2.08645 9.95385C2.14533 9.92987 2.19871 9.89404 2.24335 9.84854C2.33319 9.75313 2.38504 9.62776 2.38904 9.49633V5.41666C2.38904 5.36607 2.409 5.31754 2.44452 5.28176C2.48004 5.24598 2.52822 5.22588 2.57845 5.22588H11.0215C11.0717 5.22588 11.1199 5.24598 11.1554 5.28176C11.1909 5.31754 11.2109 5.36607 11.2109 5.41666V10.8611C11.2109 10.9117 11.1909 10.9602 11.1554 10.996C11.1199 11.0318 11.0717 11.0519 11.0215 11.0519H6.97117C6.90709 11.0509 6.84351 11.0635 6.78454 11.0887C6.72558 11.114 6.67252 11.1515 6.62878 11.1986C6.58361 11.2436 6.54803 11.2974 6.52423 11.3567C6.50043 11.416 6.48891 11.4796 6.49037 11.5435C6.49225 11.6714 6.54351 11.7934 6.63327 11.8838C6.72303 11.9743 6.84424 12.0259 6.97117 12.0278H11.0215C11.3287 12.0278 11.6233 11.9049 11.8405 11.6861C12.0577 11.4673 12.1798 11.1705 12.1798 10.8611V7.29507H14.4235C14.5252 7.29584 14.6245 7.32597 14.7098 7.3819C14.795 7.43782 14.8625 7.51718 14.9043 7.61058V7.68396H13.6877C13.4706 7.68395 13.2624 7.77029 13.1082 7.9242C12.954 8.07811 12.8665 8.28713 12.8645 8.50576V9.87055C12.8664 10.0899 12.9538 10.2996 13.1077 10.4547C13.2617 10.6098 13.47 10.6978 13.6877 10.6997H16.2447C16.2486 10.7485 16.2486 10.7976 16.2447 10.8464V12.2479C16.2447 12.2992 16.225 12.3485 16.1897 12.3855C16.1543 12.4224 16.1062 12.4441 16.0553 12.446H15.1228C15.0163 12.0554 14.7854 11.7109 14.4656 11.4653C14.1458 11.2197 13.7548 11.0867 13.3526 11.0867C12.9505 11.0867 12.5595 11.2197 12.2397 11.4653C11.9198 11.7109 11.6889 12.0554 11.5824 12.446H6.33738C6.23087 12.0554 5.99997 11.7109 5.68016 11.4653C5.36035 11.2197 4.96934 11.0867 4.56719 11.0867C4.16504 11.0867 3.77402 11.2197 3.45421 11.4653C3.1344 11.7109 2.9035 12.0554 2.79699 12.446H2.54203C2.51653 12.446 2.49129 12.4409 2.46782 12.4308C2.44435 12.4208 2.42313 12.4061 2.40545 12.3876C2.38776 12.3691 2.37396 12.3472 2.36489 12.3232C2.35581 12.2992 2.35163 12.2736 2.35261 12.2479V12.0351C2.42745 12.0106 2.49505 11.9678 2.54931 11.9104C2.61753 11.8426 2.66411 11.7559 2.68307 11.6613C2.70203 11.5667 2.69251 11.4686 2.65572 11.3795C2.61893 11.2904 2.55655 11.2144 2.47659 11.1613C2.39663 11.1081 2.30272 11.0803 2.20692 11.0812H1.18706C1.1242 11.0813 1.06203 11.0943 1.00438 11.1196C0.946741 11.1448 0.894856 11.1817 0.851954 11.228C0.805293 11.2718 0.768733 11.3254 0.744821 11.385C0.72091 11.4445 0.710227 11.5087 0.713542 11.5728C0.713542 11.7013 0.7642 11.8245 0.854366 11.9153C0.944533 12.0061 1.06682 12.0571 1.19434 12.0571H1.38375V12.2479C1.38375 12.5573 1.50578 12.8541 1.723 13.0729C1.94022 13.2916 2.23483 13.4146 2.54203 13.4146H2.79699C2.9035 13.8052 3.1344 14.1497 3.45421 14.3953C3.77402 14.6409 4.16504 14.7739 4.56719 14.7739C4.96934 14.7739 5.36035 14.6409 5.68016 14.3953C5.99997 14.1497 6.23087 13.8052 6.33738 13.4146H11.5824C11.6894 13.8444 11.9485 14.22 12.3109 14.4712C12.6075 14.6736 12.9579 14.781 13.3162 14.7794C13.4409 14.778 13.5652 14.7658 13.6877 14.7427C14.0216 14.6751 14.3301 14.515 14.5785 14.2804C14.827 14.0457 15.0054 13.7459 15.0937 13.4146H16.0261C16.3333 13.4146 16.6279 13.2916 16.8452 13.0729C17.0624 12.8541 17.1844 12.5573 17.1844 12.2479V10.8171C17.2051 10.5583 17.1703 10.2981 17.0824 10.054V10.054ZM13.8698 9.69443V8.62316H15.3778L15.8586 9.69443H13.8698ZM4.58904 13.7741C4.41759 13.7741 4.24998 13.7229 4.10742 13.627C3.96487 13.531 3.85376 13.3946 3.78815 13.2351C3.72254 13.0755 3.70537 12.9 3.73882 12.7306C3.77227 12.5612 3.85482 12.4056 3.97606 12.2835C4.0973 12.1614 4.25176 12.0782 4.41992 12.0446C4.58808 12.0109 4.76239 12.0282 4.92079 12.0942C5.07919 12.1603 5.21458 12.2723 5.30984 12.4158C5.40509 12.5594 5.45593 12.7283 5.45593 12.9009C5.45593 13.1325 5.3646 13.3546 5.20203 13.5184C5.03946 13.6821 4.81896 13.7741 4.58904 13.7741V13.7741ZM13.3745 13.7741C13.203 13.7741 13.0354 13.7229 12.8929 13.627C12.7503 13.531 12.6392 13.3946 12.5736 13.2351C12.508 13.0755 12.4908 12.9 12.5242 12.7306C12.5577 12.5612 12.6403 12.4056 12.7615 12.2835C12.8827 12.1614 13.0372 12.0782 13.2054 12.0446C13.3735 12.0109 13.5478 12.0282 13.7062 12.0942C13.8646 12.1603 14 12.2723 14.0953 12.4158C14.1905 12.5594 14.2414 12.7283 14.2414 12.9009C14.2414 13.13 14.1521 13.3499 13.9926 13.5132C13.8332 13.6766 13.6164 13.7702 13.389 13.7741H13.3745Z" fill="#0DAB30"/>
<path d="M6.72353 7.62525C6.72353 7.51381 6.70164 7.40349 6.65908 7.30063C6.61653 7.19778 6.55416 7.10442 6.4756 7.02597C6.39703 6.94752 6.30381 6.88552 6.20133 6.84355C6.09884 6.80158 5.98913 6.78047 5.87851 6.78143H5.20102C5.11214 6.78143 5.02691 6.817 4.96406 6.8803C4.90122 6.9436 4.86592 7.02944 4.86592 7.11895V9.15879C4.86495 9.20372 4.87291 9.24841 4.88931 9.29021C4.90572 9.33201 4.93024 9.37009 4.96145 9.40221C4.99267 9.43434 5.02994 9.45986 5.07107 9.47728C5.11221 9.4947 5.15639 9.50367 5.20102 9.50366C5.29057 9.50368 5.37658 9.46835 5.44058 9.40526C5.50459 9.34216 5.5415 9.25632 5.5434 9.16613V8.76256L6.08976 9.39359C6.14866 9.4602 6.23089 9.50123 6.31918 9.50807C6.40747 9.51491 6.49496 9.48703 6.56328 9.43028C6.59544 9.39882 6.621 9.36118 6.63846 9.31959C6.65592 9.27799 6.66492 9.2333 6.66492 9.18814C6.66492 9.14299 6.65592 9.09829 6.63846 9.0567C6.621 9.01511 6.59544 8.97746 6.56328 8.946L6.1189 8.43971C6.2933 8.38759 6.44633 8.28018 6.55526 8.13344C6.6642 7.9867 6.72321 7.80847 6.72353 7.62525ZM5.87851 7.80135H5.5434V7.45649H5.87851C5.91787 7.46471 5.95322 7.48634 5.9786 7.51775C6.00398 7.54916 6.01784 7.58842 6.01784 7.62892C6.01784 7.66941 6.00398 7.70868 5.9786 7.74008C5.95322 7.77149 5.91787 7.79313 5.87851 7.80135Z" fill="#0DAB30"/>
<path d="M4.26854 7.4565C4.31255 7.4565 4.35613 7.44777 4.39678 7.43081C4.43744 7.41385 4.47438 7.38898 4.50549 7.35764C4.53661 7.3263 4.5613 7.28909 4.57814 7.24814C4.59498 7.20719 4.60365 7.1633 4.60365 7.11897C4.60365 7.07465 4.59498 7.03076 4.57814 6.98981C4.5613 6.94886 4.53661 6.91166 4.50549 6.88031C4.47438 6.84897 4.43744 6.82411 4.39678 6.80715C4.35613 6.79018 4.31255 6.78145 4.26854 6.78145H3.25596C3.21134 6.78047 3.16698 6.78848 3.12548 6.80501C3.08398 6.82153 3.04617 6.84623 3.01428 6.87767C2.98239 6.90911 2.95706 6.94665 2.93976 6.98809C2.92247 7.02952 2.91356 7.07402 2.91357 7.11897V9.1588C2.91355 9.24901 2.94863 9.33563 3.01127 9.4001C3.07391 9.46457 3.15914 9.50176 3.24868 9.50368C3.29329 9.50466 3.33765 9.49663 3.37915 9.48011C3.42065 9.46359 3.45846 9.43889 3.49036 9.40745C3.52225 9.37601 3.54758 9.33847 3.56487 9.29703C3.58217 9.25559 3.59107 9.2111 3.59106 9.16615V8.48375H4.10099C4.18987 8.48375 4.2751 8.4482 4.33795 8.3849C4.40079 8.3216 4.43609 8.23575 4.43609 8.14623C4.43609 8.05671 4.40079 7.97086 4.33795 7.90756C4.2751 7.84426 4.18987 7.8087 4.10099 7.8087H3.59106V7.46384L4.26854 7.4565Z" fill="#0DAB30"/>
<path d="M10.344 7.4565C10.3886 7.45652 10.4328 7.44755 10.474 7.43013C10.5151 7.41271 10.5524 7.38719 10.5836 7.35507C10.6148 7.32294 10.6393 7.28486 10.6558 7.24306C10.6722 7.20126 10.6801 7.15658 10.6791 7.11164C10.6791 7.06765 10.6704 7.02411 10.6535 6.98357C10.6366 6.94302 10.6118 6.90628 10.5805 6.87552C10.5493 6.84477 10.5123 6.82061 10.4717 6.80445C10.4311 6.7883 10.3877 6.78048 10.344 6.78145H9.33145C9.24258 6.78145 9.15733 6.81702 9.09449 6.88032C9.03165 6.94361 8.99634 7.02946 8.99634 7.11897V9.1588C8.99634 9.24832 9.03165 9.33418 9.09449 9.39747C9.15733 9.46077 9.24258 9.49634 9.33145 9.49634H10.344C10.4329 9.49634 10.5181 9.46077 10.581 9.39747C10.6438 9.33418 10.6791 9.24832 10.6791 9.1588C10.6801 9.11421 10.6721 9.06987 10.6556 9.02847C10.6392 8.98707 10.6145 8.94945 10.5832 8.91791C10.5519 8.88636 10.5145 8.86154 10.4734 8.84493C10.4323 8.82832 10.3883 8.82028 10.344 8.82128H9.6884V8.47642H10.1838C10.2278 8.47642 10.2714 8.46769 10.312 8.45072C10.3527 8.43376 10.3896 8.4089 10.4207 8.37756C10.4518 8.34622 10.4765 8.30901 10.4934 8.26806C10.5102 8.22711 10.5189 8.18321 10.5189 8.13889C10.5189 8.09456 10.5102 8.05068 10.4934 8.00973C10.4765 7.96878 10.4518 7.93157 10.4207 7.90023C10.3896 7.86889 10.3527 7.84403 10.312 7.82706C10.2714 7.8101 10.2278 7.80137 10.1838 7.80137H9.6884V7.4565H10.344Z" fill="#0DAB30"/>
<path d="M8.4063 7.4565C8.49586 7.45652 8.58185 7.4212 8.64585 7.3581C8.70986 7.295 8.74678 7.20916 8.74868 7.11897C8.74682 7.03004 8.71092 6.94528 8.64848 6.88239C8.58603 6.81949 8.50187 6.78332 8.41358 6.78145H7.39372C7.3491 6.78047 7.30474 6.78848 7.26324 6.80501C7.22174 6.82153 7.18393 6.84623 7.15204 6.87767C7.12015 6.90911 7.0948 6.94665 7.07751 6.98809C7.06021 7.02952 7.05132 7.07402 7.05133 7.11897V9.1588C7.05132 9.20375 7.06021 9.24825 7.07751 9.28969C7.0948 9.33112 7.12015 9.36866 7.15204 9.4001C7.18393 9.43154 7.22174 9.45625 7.26324 9.47278C7.30474 9.4893 7.3491 9.49731 7.39372 9.49633H8.4063C8.49517 9.49633 8.5804 9.46077 8.64324 9.39747C8.70608 9.33417 8.74139 9.24832 8.74139 9.1588C8.74139 9.06929 8.70608 8.98344 8.64324 8.92015C8.5804 8.85685 8.49517 8.82128 8.4063 8.82128H7.72153V8.47642H8.23146C8.32033 8.47642 8.40557 8.44085 8.46841 8.37756C8.53126 8.31426 8.56656 8.2284 8.56656 8.13889C8.56656 8.04937 8.53126 7.96353 8.46841 7.90023C8.40557 7.83693 8.32033 7.80137 8.23146 7.80137H7.72881V7.4565H8.4063Z" fill="#0DAB30"/>
</g>
<defs>
<clipPath id="clip0_1605_45678">
<rect width="16.5" height="10.5" fill="white" transform="translate(0.75 4.25)"/>
</clipPath>
</defs>
</svg>
