<svg width="14" height="13" viewBox="0 0 14 13" fill="none" xmlns="http://www.w3.org/2000/svg">
<path d="M10.9459 8.04667C10.7732 8.214 10.6939 8.456 10.7332 8.69334L11.3259 11.9733C11.3759 12.2513 11.2586 12.5327 11.0259 12.6933C10.7979 12.86 10.4946 12.88 10.2459 12.7467L7.29323 11.2067C7.19056 11.152 7.07656 11.1227 6.9599 11.1193H6.77923C6.71656 11.1287 6.65523 11.1487 6.59923 11.1793L3.6459 12.7267C3.4999 12.8 3.33456 12.826 3.17256 12.8C2.7779 12.7253 2.51456 12.3493 2.57923 11.9527L3.17256 8.67267C3.2119 8.43334 3.13256 8.19 2.9599 8.02L0.552564 5.68667C0.35123 5.49134 0.28123 5.198 0.37323 4.93334C0.462564 4.66934 0.690564 4.47667 0.965897 4.43334L4.27923 3.95267C4.53123 3.92667 4.75256 3.77334 4.8659 3.54667L6.3259 0.553338C6.36056 0.486672 6.40523 0.425338 6.45923 0.373338L6.51923 0.326672C6.55056 0.292005 6.58656 0.263338 6.62656 0.240005L6.69923 0.213338L6.81256 0.166672H7.09323C7.3439 0.192672 7.56456 0.342672 7.6799 0.566672L9.15923 3.54667C9.2659 3.76467 9.47323 3.916 9.71256 3.95267L13.0259 4.43334C13.3059 4.47334 13.5399 4.66667 13.6326 4.93334C13.7199 5.20067 13.6446 5.494 13.4392 5.68667L10.9459 8.04667Z" fill="#E1C16E"/>
</svg>
