<svg width="30" height="30" viewBox="0 0 30 30" fill="none" xmlns="http://www.w3.org/2000/svg">
<path fill-rule="evenodd" clip-rule="evenodd" d="M0 30.001L30.001 0H16C7.16344 0 0 7.16345 0 16V30.001Z" fill="#31265A"/>
<path d="M7.24673 16.5532L4.19203 13.4985L4.70963 12.9808L8.27982 13.7169L6.12668 11.5638L6.64428 11.0462L9.69898 14.1009L9.18138 14.6185L5.61119 13.8824L7.76433 16.0356L7.24673 16.5532ZM10.292 13.5079L7.23729 10.4532L9.21011 8.48037L9.68953 8.95979L8.22794 10.4214L8.98101 11.1744L10.188 9.96741L10.6675 10.4468L9.46043 11.6539L10.3238 12.5172L11.7854 11.0557L12.2648 11.5351L10.292 13.5079ZM13.4186 10.3812L9.47087 8.21961L10.0076 7.68292L12.8226 9.28027L11.2273 6.47164L11.7598 5.93071L14.5748 7.52806L12.9753 4.71519L13.512 4.1785L15.6757 8.12415L15.1709 8.62903L12.3728 7.08258L13.9235 9.87636L13.4186 10.3812Z" fill="white"/>
</svg>
