<svg width="18" height="18" viewBox="0 0 18 18" fill="none" xmlns="http://www.w3.org/2000/svg">
<path fill-rule="evenodd" clip-rule="evenodd" d="M9.18403 16.4994C8.16778 16.4994 7.17703 16.4881 6.19678 16.4679C4.94278 16.4431 4.07503 15.6301 3.93328 14.3461C3.69703 12.2161 3.29278 7.19563 3.28903 7.14538C3.26353 6.83563 3.49453 6.56413 3.80428 6.53938C4.10953 6.53113 4.38553 6.74563 4.41028 7.05463C4.41403 7.10563 4.81753 12.1089 5.05153 14.2224C5.13178 14.9521 5.52553 15.3286 6.22003 15.3429C8.09503 15.3826 10.0083 15.3849 12.0708 15.3474C12.8088 15.3331 13.2078 14.9641 13.2903 14.2171C13.5228 12.1216 13.9278 7.10563 13.9323 7.05463C13.957 6.74563 14.2308 6.52963 14.5375 6.53938C14.8473 6.56488 15.0783 6.83563 15.0535 7.14538C15.049 7.19638 14.6425 12.2296 14.4085 14.3409C14.263 15.6511 13.3975 16.4484 12.091 16.4724C11.0913 16.4896 10.1268 16.4994 9.18403 16.4994Z" fill="#212325"/>
<path fill-rule="evenodd" clip-rule="evenodd" d="M15.531 5.24121H2.8125C2.502 5.24121 2.25 4.98921 2.25 4.67871C2.25 4.36821 2.502 4.11621 2.8125 4.11621H15.531C15.8415 4.11621 16.0935 4.36821 16.0935 4.67871C16.0935 4.98921 15.8415 5.24121 15.531 5.24121Z" fill="#212325"/>
<path fill-rule="evenodd" clip-rule="evenodd" d="M13.079 5.24175C12.2255 5.24175 11.4845 4.6335 11.3165 3.7965L11.1342 2.8845C11.096 2.74575 10.9377 2.625 10.7577 2.625H7.58297C7.40297 2.625 7.24472 2.74575 7.19897 2.919L7.02422 3.7965C6.85697 4.6335 6.11522 5.24175 5.26172 5.24175C4.95122 5.24175 4.69922 4.98975 4.69922 4.67925C4.69922 4.36875 4.95122 4.11675 5.26172 4.11675C5.58122 4.11675 5.85872 3.88875 5.92172 3.57525L6.10397 2.66325C6.28922 1.96425 6.89447 1.5 7.58297 1.5H10.7577C11.4462 1.5 12.0515 1.96425 12.2292 2.6295L12.4197 3.57525C12.482 3.88875 12.7595 4.11675 13.079 4.11675C13.3895 4.11675 13.6415 4.36875 13.6415 4.67925C13.6415 4.98975 13.3895 5.24175 13.079 5.24175Z" fill="#212325"/>
</svg>
