<svg width="22" height="21" viewBox="0 0 22 21" fill="none" xmlns="http://www.w3.org/2000/svg">
<path fill-rule="evenodd" clip-rule="evenodd" d="M14.3119 1.60926C15.4125 2.06663 15.7493 3.65945 16.1993 4.17143C16.6494 4.68341 17.2934 4.85748 17.6498 4.85748C19.5438 4.85748 21.0792 6.46055 21.0792 8.43678V15.0299C21.0792 17.6808 19.0196 19.8312 16.4805 19.8312H5.51766C2.97747 19.8312 0.918945 17.6808 0.918945 15.0299V8.43678C0.918945 6.46055 2.45439 4.85748 4.34837 4.85748C4.70362 4.85748 5.34766 4.68341 5.79882 4.17143C6.24888 3.65945 6.58452 2.06663 7.68516 1.60926C8.78689 1.15189 13.2113 1.15189 14.3119 1.60926Z" stroke="#787C80" stroke-width="1.5" stroke-linecap="round" stroke-linejoin="round"/>
<path d="M16.9875 7.80843H16.9973" stroke="#787C80" stroke-width="2" stroke-linecap="round" stroke-linejoin="round"/>
<path fill-rule="evenodd" clip-rule="evenodd" d="M14.463 11.9361C14.463 9.93827 12.9123 8.31927 10.9987 8.31927C9.08513 8.31927 7.53442 9.93827 7.53442 11.9361C7.53442 13.934 9.08513 15.553 10.9987 15.553C12.9123 15.553 14.463 13.934 14.463 11.9361Z" stroke="#787C80" stroke-width="1.5" stroke-linecap="round" stroke-linejoin="round"/>
</svg>
