<svg width="22" height="25" viewBox="0 0 22 25" fill="none" xmlns="http://www.w3.org/2000/svg">
<path d="M18.1724 3.0481C18.1724 2.23969 17.8243 1.4644 17.2046 0.892766C16.585 0.321138 15.7446 0 14.8683 0H8.94392C8.2869 0.000533575 7.65701 0.241737 7.19272 0.670581L0.724838 6.6357C0.260576 7.06426 -0.00028038 7.64531 -0.000421524 8.25119V18.2886C-0.000421524 19.097 0.347694 19.8723 0.967342 20.4439C1.58699 21.0155 2.42742 21.3367 3.30373 21.3367H14.8683C15.7446 21.3367 16.585 21.0155 17.2046 20.4439C17.8243 19.8723 18.1724 19.097 18.1724 18.2886V3.0481ZM14.8683 1.52405C15.3064 1.52405 15.7266 1.68462 16.0365 1.97043C16.3463 2.25625 16.5203 2.64389 16.5203 3.0481V18.2886C16.5203 18.6928 16.3463 19.0804 16.0365 19.3662C15.7266 19.6521 15.3064 19.8126 14.8683 19.8126H3.30373C2.86557 19.8126 2.44536 19.6521 2.13554 19.3662C1.82571 19.0804 1.65166 18.6928 1.65166 18.2886V9.14429H7.43392C8.09116 9.14429 8.72147 8.90343 9.18621 8.47471C9.65095 8.04599 9.91203 7.46452 9.91203 6.85822V1.52405H14.8683ZM8.25996 1.83953V6.85822C8.25996 7.06032 8.17293 7.25414 8.01802 7.39705C7.8631 7.53995 7.653 7.62024 7.43392 7.62024H1.99363L8.25996 1.83953ZM21.4766 4.57214C21.4766 4.16794 21.3025 3.78029 20.9927 3.49448C20.6829 3.20866 20.2626 3.0481 19.8245 3.0481V18.2886C19.8245 19.5012 19.3023 20.6641 18.3728 21.5216C17.4434 22.379 16.1827 22.8607 14.8683 22.8607H3.30373C3.30373 23.2649 3.47779 23.6526 3.78761 23.9384C4.09744 24.2242 4.51765 24.3848 4.95581 24.3848H14.9674C16.6937 24.3848 18.3494 23.7521 19.5701 22.626C20.7908 21.4999 21.4766 19.9726 21.4766 18.38V4.57214Z" fill="white"/>
</svg>
