<svg width="18" height="18" viewBox="0 0 18 18" fill="none" xmlns="http://www.w3.org/2000/svg">
<path d="M14.7145 11.3265L15.682 10.3589C16.2945 9.74652 16.2946 8.7499 15.6821 8.13717C15.4941 7.94933 15.2684 7.81737 15.0273 7.74422C15.2245 7.47632 15.3312 7.15382 15.3312 6.81493C15.3312 6.39533 15.1677 6.00076 14.8709 5.70405C14.5743 5.40734 14.1798 5.24388 13.7601 5.24388C13.7425 5.24388 13.7249 5.24421 13.7073 5.24475C13.721 4.82536 13.5682 4.40134 13.2487 4.08176C12.9293 3.76239 12.5047 3.6094 12.086 3.62332C12.0865 3.60584 12.0868 3.58814 12.0868 3.57056C12.0868 3.15085 11.9234 2.75639 11.6267 2.45968C11.0143 1.84727 10.0176 1.84717 9.40491 2.45968L9.07044 2.79415L8.73608 2.45979C8.43937 2.16297 8.0448 1.99951 7.62509 1.99951C7.20549 1.99951 6.81103 2.16297 6.51432 2.45957C6.19474 2.77915 6.04229 3.20328 6.05621 3.62299C6.03851 3.62235 6.02082 3.6217 6.00312 3.6217C5.58352 3.6217 5.18895 3.78505 4.89203 4.08176C4.57256 4.40145 4.4201 4.82558 4.43402 5.24518C4.41622 5.24453 4.39852 5.24388 4.38072 5.24388C3.96112 5.24388 3.56655 5.40734 3.27006 5.70394C2.97324 6.00065 2.80978 6.39522 2.80978 6.81493C2.80978 7.15372 2.91638 7.47621 3.11372 7.744C2.86902 7.8178 2.64471 7.95138 2.45881 8.13717C1.8478 8.74839 1.8464 9.74188 2.45471 10.3546C2.45622 10.3562 2.45773 10.3577 2.45924 10.3594L3.42812 11.328C3.42942 11.3294 3.43082 11.3308 3.43222 11.3322C3.49038 11.3905 3.55253 11.4433 3.61769 11.4911L3.33113 11.7776C3.05244 12.0563 2.91045 12.436 2.93149 12.8467C2.95156 13.2411 3.12127 13.6168 3.40914 13.9046L5.04794 15.5436C5.35198 15.8475 5.75119 15.9995 6.15051 15.9995C6.54982 15.9995 6.94914 15.8475 7.25307 15.5436L8.01481 14.7817C8.36233 14.8563 8.71633 14.8941 9.07066 14.8941C9.42466 14.8941 9.77876 14.8565 10.1262 14.7819L10.8877 15.5436C11.1917 15.8475 11.591 15.9995 11.9903 15.9995C12.3895 15.9994 12.7889 15.8475 13.0928 15.5436L14.7317 13.9046C15.3396 13.2968 15.4087 12.3766 14.8856 11.8535L14.5366 11.5044L14.7088 11.3321C14.7107 11.3303 14.7125 11.3285 14.7145 11.3265ZM7.11389 3.05925C7.25048 2.92265 7.43207 2.84745 7.6252 2.84745C7.81833 2.84745 7.99992 2.92265 8.13651 3.05925L9.43415 4.35689C9.71608 4.63892 9.71608 5.09769 9.43415 5.37961C9.29756 5.51621 9.11597 5.59141 8.92295 5.59141H8.92284C8.72971 5.5913 8.54823 5.51621 8.41164 5.37961C8.41142 5.3794 8.41121 5.37918 8.4111 5.37908L7.11421 4.08219C7.11314 4.08111 7.11216 4.08003 7.11098 4.07906C6.83196 3.7967 6.83294 3.34009 7.11389 3.05925ZM5.48976 5.70211C5.20978 5.41997 5.21043 4.9626 5.4916 4.68143C5.6283 4.54484 5.80999 4.46964 6.00312 4.46964C6.19604 4.46964 6.37741 4.54473 6.514 4.68122C6.51411 4.68122 6.51422 4.68132 6.51422 4.68143C6.51476 4.68186 6.51519 4.6823 6.51562 4.68273L7.81175 5.97886C7.8125 5.97972 7.81348 5.98058 7.81434 5.98145L8.1364 6.30351C8.273 6.4401 8.34831 6.62169 8.34831 6.81493C8.34831 7.00806 8.2731 7.18964 8.13651 7.32613C7.99992 7.46272 7.81833 7.53793 7.6252 7.53793C7.43207 7.53793 7.25048 7.46272 7.114 7.32613C7.11227 7.3244 7.11055 7.32279 7.10882 7.32117L6.79086 7.0031C6.79043 7.00266 6.78999 7.00223 6.78956 7.00169L5.49171 5.70405L5.4916 5.70394C5.49095 5.7033 5.4903 5.70265 5.48976 5.70211ZM3.86973 6.30351C4.00622 6.16703 4.1877 6.09182 4.38083 6.09182C4.57396 6.09182 4.75554 6.16703 4.89214 6.30362L6.19129 7.60277C6.47181 7.88481 6.47127 8.34249 6.19 8.62399C6.0534 8.76047 5.87171 8.83567 5.67858 8.83567C5.48545 8.83567 5.30386 8.76047 5.16738 8.62388C5.16565 8.62226 5.16403 8.62053 5.1623 8.61892L3.87373 7.33034C3.87232 7.32894 3.87092 7.32743 3.86963 7.32613C3.73303 7.18954 3.65783 7.00806 3.65783 6.81493C3.65772 6.6218 3.73303 6.44021 3.86973 6.30351ZM3.0628 9.76378C3.06118 9.76205 3.05956 9.76043 3.05794 9.75882C2.77655 9.47689 2.77677 9.01856 3.05848 8.73684C3.19507 8.60025 3.37666 8.52505 3.56979 8.52505C3.76292 8.52505 3.94461 8.60025 4.08121 8.73695L5.05441 9.71005C5.33634 9.99197 5.33634 10.4507 5.05452 10.7327C4.91792 10.8693 4.73634 10.9445 4.54332 10.9445H4.54321C4.50771 10.9445 4.47265 10.9419 4.43812 10.9369C4.43553 10.9364 4.43294 10.936 4.43035 10.9356C4.28146 10.9124 4.144 10.8436 4.03492 10.7358C4.03384 10.7346 4.03265 10.7335 4.03158 10.7323L3.0628 9.76378ZM7.99182 13.9051C7.98816 13.9041 7.9846 13.9037 7.98104 13.9028C7.97251 13.9008 7.9641 13.8988 7.95557 13.8973C7.94931 13.8962 7.94306 13.8955 7.93669 13.8946C7.92968 13.8937 7.92266 13.8929 7.91554 13.8923C7.9081 13.8917 7.90065 13.8914 7.89321 13.8913C7.88717 13.891 7.88123 13.8909 7.87519 13.891C7.86721 13.8912 7.85933 13.8916 7.85145 13.8922C7.84574 13.8927 7.84002 13.8931 7.8343 13.8937C7.82653 13.8946 7.81887 13.8958 7.81121 13.8971C7.80517 13.8981 7.79923 13.8992 7.79319 13.9005C7.78618 13.9021 7.77927 13.9037 7.77237 13.9056C7.76579 13.9073 7.75921 13.9093 7.75262 13.9113C7.74647 13.9134 7.74054 13.9155 7.7345 13.9177C7.72748 13.9204 7.72047 13.9231 7.71367 13.9261C7.70817 13.9285 7.70267 13.9311 7.69727 13.9337C7.69037 13.937 7.68357 13.9405 7.67688 13.9442C7.67138 13.9473 7.66598 13.9505 7.66059 13.9538C7.65455 13.9576 7.6484 13.9614 7.64246 13.9655C7.63642 13.9697 7.63049 13.9741 7.62466 13.9787C7.61981 13.9823 7.61506 13.986 7.61031 13.9899C7.60341 13.9957 7.59682 14.0017 7.59035 14.008C7.58787 14.0104 7.58517 14.0124 7.58269 14.0149L6.65362 14.944C6.37622 15.2214 5.92501 15.2214 5.64761 14.944L4.00881 13.3052C3.86963 13.166 3.78774 12.9879 3.77835 12.8035C3.76982 12.6355 3.82388 12.4841 3.9308 12.3773L4.51624 11.7918C4.52519 11.7919 4.53415 11.7924 4.54321 11.7924C4.54321 11.7924 4.54321 11.7924 4.54332 11.7924C4.96281 11.7924 5.35727 11.6289 5.65409 11.3322C6.10821 10.878 6.22528 10.2127 6.00582 9.6493C6.30059 9.58716 6.57151 9.4415 6.78967 9.22355C7.0388 8.97421 7.18661 8.66121 7.2329 8.33645C7.35957 8.36893 7.49109 8.38586 7.6252 8.38586C7.6252 8.38586 7.6252 8.38586 7.62531 8.38586C8.0448 8.38586 8.43926 8.22251 8.73608 7.92581C9.03279 7.6291 9.19625 7.23453 9.19625 6.81493C9.19625 6.68103 9.17941 6.54973 9.14715 6.42327C9.48162 6.3758 9.79063 6.22237 10.0337 5.97907C10.6462 5.36667 10.6462 4.37005 10.0338 3.75743L9.67001 3.39361L10.0045 3.05925C10.2865 2.77732 10.7453 2.77732 11.0271 3.05914C11.1637 3.19573 11.2389 3.37732 11.2389 3.57045C11.2389 3.76358 11.1637 3.94516 11.0271 4.08176C10.9443 4.16451 10.9029 4.27305 10.9029 4.3816C10.9029 4.49003 10.9442 4.59857 11.0271 4.68132C11.1927 4.84694 11.461 4.84694 11.6267 4.68132C11.9085 4.39951 12.3672 4.3994 12.6493 4.68132C12.9312 4.96336 12.9311 5.42212 12.6492 5.70405C12.5664 5.78681 12.525 5.89535 12.525 6.00378C12.525 6.11232 12.5663 6.22076 12.6492 6.30351C12.8148 6.46913 13.0831 6.46913 13.2487 6.30362C13.3853 6.16703 13.567 6.09182 13.7602 6.09171C13.9533 6.09171 14.1349 6.16692 14.2714 6.30351C14.4081 6.44021 14.4833 6.6218 14.4833 6.81493C14.4833 7.00547 14.41 7.18479 14.2769 7.32063C14.2749 7.32257 14.273 7.3244 14.2711 7.32635L13.6632 7.93444C13.5118 8.08581 13.497 8.32631 13.6287 8.49505L13.6505 8.523C13.782 8.69142 14.0182 8.73566 14.2017 8.62636C14.486 8.45697 14.8482 8.50239 15.0825 8.73663C15.3644 9.01866 15.3644 9.47743 15.0825 9.75936L14.1094 10.7323C14.1076 10.7343 14.1056 10.7362 14.1038 10.7382L12.0151 12.8269C10.9671 13.8749 9.42552 14.288 7.99182 13.9051ZM14.2861 12.453C14.472 12.639 14.4002 13.0373 14.1323 13.3052L12.4934 14.944C12.216 15.2214 11.7648 15.2214 11.4874 14.944L11.0364 14.493C11.6226 14.2428 12.1594 13.8817 12.6146 13.4265L13.937 12.104L14.2861 12.453Z" fill="#212325"/>
</svg>
