<svg width="33" height="32" viewBox="0 0 33 32" fill="none" xmlns="http://www.w3.org/2000/svg">
<rect x="2.47607" y="2" width="28.1041" height="28" rx="6" fill="url(#paint0_radial_1605_43433)"/>
<rect x="2.47607" y="2" width="28.1041" height="28" rx="6" fill="url(#paint1_radial_1605_43433)"/>
<rect x="2.47607" y="2" width="28.1041" height="28" rx="6" fill="url(#paint2_radial_1605_43433)"/>
<path d="M23.5542 10.5C23.5542 11.3284 22.8801 12 22.0486 12C21.2171 12 20.543 11.3284 20.543 10.5C20.543 9.67157 21.2171 9 22.0486 9C22.8801 9 23.5542 9.67157 23.5542 10.5Z" fill="white"/>
<path fill-rule="evenodd" clip-rule="evenodd" d="M16.5281 21C19.2998 21 21.5467 18.7614 21.5467 16C21.5467 13.2386 19.2998 11 16.5281 11C13.7565 11 11.5096 13.2386 11.5096 16C11.5096 18.7614 13.7565 21 16.5281 21ZM16.5281 19C18.1912 19 19.5393 17.6569 19.5393 16C19.5393 14.3431 18.1912 13 16.5281 13C14.8651 13 13.517 14.3431 13.517 16C13.517 17.6569 14.8651 19 16.5281 19Z" fill="white"/>
<path fill-rule="evenodd" clip-rule="evenodd" d="M6.49097 15.6C6.49097 12.2397 6.49097 10.5595 7.14736 9.27606C7.72474 8.14708 8.64603 7.2292 9.7792 6.65396C11.0674 6 12.7538 6 16.1267 6H16.9296C20.3024 6 21.9888 6 23.2771 6.65396C24.4102 7.2292 25.3315 8.14708 25.9089 9.27606C26.5653 10.5595 26.5653 12.2397 26.5653 15.6V16.4C26.5653 19.7603 26.5653 21.4405 25.9089 22.7239C25.3315 23.8529 24.4102 24.7708 23.2771 25.346C21.9888 26 20.3024 26 16.9296 26H16.1267C12.7538 26 11.0674 26 9.7792 25.346C8.64603 24.7708 7.72474 23.8529 7.14736 22.7239C6.49097 21.4405 6.49097 19.7603 6.49097 16.4V15.6ZM16.1267 8H16.9296C18.6492 8 19.8181 8.00156 20.7216 8.0751C21.6017 8.14674 22.0518 8.27659 22.3657 8.43597C23.1212 8.81947 23.7354 9.43139 24.1203 10.184C24.2803 10.4968 24.4106 10.9452 24.4825 11.8221C24.5563 12.7223 24.5579 13.8868 24.5579 15.6V16.4C24.5579 18.1132 24.5563 19.2777 24.4825 20.1779C24.4106 21.0548 24.2803 21.5032 24.1203 21.816C23.7354 22.5686 23.1212 23.1805 22.3657 23.564C22.0518 23.7234 21.6017 23.8533 20.7216 23.9249C19.8181 23.9984 18.6492 24 16.9296 24H16.1267C14.4071 24 13.2382 23.9984 12.3347 23.9249C11.4546 23.8533 11.0045 23.7234 10.6906 23.564C9.93511 23.1805 9.32092 22.5686 8.936 21.816C8.77602 21.5032 8.64569 21.0548 8.57378 20.1779C8.49996 19.2777 8.4984 18.1132 8.4984 16.4V15.6C8.4984 13.8868 8.49996 12.7223 8.57378 11.8221C8.64569 10.9452 8.77602 10.4968 8.936 10.184C9.32092 9.43139 9.93511 8.81947 10.6906 8.43597C11.0045 8.27659 11.4546 8.14674 12.3347 8.0751C13.2382 8.00156 14.4071 8 16.1267 8Z" fill="white"/>
<defs>
<radialGradient id="paint0_radial_1605_43433" cx="0" cy="0" r="1" gradientUnits="userSpaceOnUse" gradientTransform="translate(12.5132 23) rotate(-55.2764) scale(25.5503 25.5837)">
<stop stop-color="#B13589"/>
<stop offset="0.79309" stop-color="#C62F94"/>
<stop offset="1" stop-color="#8A3AC8"/>
</radialGradient>
<radialGradient id="paint1_radial_1605_43433" cx="0" cy="0" r="1" gradientUnits="userSpaceOnUse" gradientTransform="translate(11.5095 31) rotate(-65.0551) scale(22.6091 22.6633)">
<stop stop-color="#E0E8B7"/>
<stop offset="0.444662" stop-color="#FB8A2E"/>
<stop offset="0.71474" stop-color="#E2425C"/>
<stop offset="1" stop-color="#E2425C" stop-opacity="0"/>
</radialGradient>
<radialGradient id="paint2_radial_1605_43433" cx="0" cy="0" r="1" gradientUnits="userSpaceOnUse" gradientTransform="translate(0.9705 3) rotate(-8.10039) scale(39.0326 8.31897)">
<stop offset="0.156701" stop-color="#406ADC"/>
<stop offset="0.467799" stop-color="#6A45BE"/>
<stop offset="1" stop-color="#6A45BE" stop-opacity="0"/>
</radialGradient>
</defs>
</svg>
