<svg width="18" height="18" viewBox="0 0 18 18" fill="none" xmlns="http://www.w3.org/2000/svg">
<path d="M6.87891 11.1215L11.1215 6.87891" stroke="#212325" stroke-width="1.5" stroke-linecap="round" stroke-linejoin="round"/>
<path d="M5.8183 9.00006C6.1112 8.70716 6.1112 8.23229 5.8183 7.9394C5.52541 7.6465 5.05054 7.6465 4.75764 7.9394L5.8183 9.00006ZM10.0609 13.2427C10.3538 12.9498 10.3538 12.4749 10.0609 12.182C9.76805 11.8891 9.29318 11.8891 9.00028 12.182L10.0609 13.2427ZM4.75764 7.9394L3.69698 9.00006L4.75764 10.0607L5.8183 9.00006L4.75764 7.9394ZM9.00028 14.3034L10.0609 13.2427L9.00028 12.182L7.93962 13.2427L9.00028 14.3034ZM3.69698 14.3034C5.16145 15.7678 7.53582 15.7678 9.00028 14.3034L7.93962 13.2427C7.06094 14.1214 5.63632 14.1214 4.75764 13.2427L3.69698 14.3034ZM3.69698 9.00006C2.23252 10.4645 2.23252 12.8389 3.69698 14.3034L4.75764 13.2427C3.87896 12.364 3.87896 10.9394 4.75764 10.0607L3.69698 9.00006Z" fill="#212325"/>
<path d="M7.9394 4.75764C7.6465 5.05054 7.6465 5.52541 7.9394 5.8183C8.23229 6.1112 8.70716 6.1112 9.00006 5.8183L7.9394 4.75764ZM12.182 9.00028C11.8891 9.29318 11.8891 9.76805 12.182 10.0609C12.4749 10.3538 12.9498 10.3538 13.2427 10.0609L12.182 9.00028ZM9.00006 5.8183L10.0607 4.75764L9.00006 3.69698L7.9394 4.75764L9.00006 5.8183ZM13.2427 7.93962L12.182 9.00028L13.2427 10.0609L14.3034 9.00028L13.2427 7.93962ZM13.2427 4.75764C14.1214 5.63632 14.1214 7.06094 13.2427 7.93962L14.3034 9.00028C15.7678 7.53582 15.7678 5.16145 14.3034 3.69698L13.2427 4.75764ZM10.0607 4.75764C10.9394 3.87896 12.364 3.87896 13.2427 4.75764L14.3034 3.69698C12.8389 2.23252 10.4645 2.23252 9.00006 3.69698L10.0607 4.75764Z" fill="#212325"/>
</svg>
