<svg width="14" height="17" viewBox="0 0 14 17" fill="none" xmlns="http://www.w3.org/2000/svg">
<mask id="mask0_2010_8985" style="mask-type:alpha" maskUnits="userSpaceOnUse" x="0" y="0" width="14" height="17">
<path fill-rule="evenodd" clip-rule="evenodd" d="M0.25 0.5H13.0291V16.135H0.25V0.5Z" fill="white"/>
</mask>
<g mask="url(#mask0_2010_8985)">
<path fill-rule="evenodd" clip-rule="evenodd" d="M4.25626 1.625C2.34451 1.625 1.37476 2.3615 1.37476 3.81575V14.8588C1.37476 14.9293 1.41526 14.9675 1.44901 14.987C1.48276 15.008 1.53601 15.023 1.59751 14.9885L6.38401 12.3035C6.55501 12.2083 6.76426 12.2075 6.93601 12.3043L11.6813 14.9848C11.7435 15.0208 11.7968 15.0043 11.8305 14.984C11.8643 14.9638 11.904 14.9255 11.904 14.855V3.953C11.904 3.37775 11.904 1.625 9.02551 1.625H4.25626ZM1.52401 16.1353C1.30276 16.1353 1.08151 16.076 0.880506 15.9575C0.485256 15.7273 0.249756 15.3155 0.249756 14.8588V3.81575C0.249756 1.70825 1.71001 0.5 4.25626 0.5H9.02551C11.5695 0.5 13.029 1.75925 13.029 3.953V14.855C13.029 15.3125 12.7935 15.7243 12.3975 15.9545C12.003 16.1855 11.5275 16.19 11.1285 15.965L6.65851 13.4398L2.14726 15.9703C1.95226 16.0798 1.73851 16.1353 1.52401 16.1353Z" fill="#212325"/>
</g>
<path fill-rule="evenodd" clip-rule="evenodd" d="M9.35373 6.66992H3.86523C3.55473 6.66992 3.30273 6.41792 3.30273 6.10742C3.30273 5.79692 3.55473 5.54492 3.86523 5.54492H9.35373C9.66423 5.54492 9.91623 5.79692 9.91623 6.10742C9.91623 6.41792 9.66423 6.66992 9.35373 6.66992Z" fill="#212325"/>
</svg>
