<svg width="18" height="16" viewBox="0 0 18 16" fill="none" xmlns="http://www.w3.org/2000/svg">
<path d="M12.1128 11.0407L17.0595 6.30177L17.1222 6.23213C17.215 6.11073 17.2597 5.9608 17.2482 5.80984C17.2367 5.65889 17.1697 5.51704 17.0595 5.41034L12.1128 0.673551L12.0446 0.616765C11.6486 0.327479 11.0656 0.606051 11.0656 1.11927V3.40141L10.8181 3.41748C6.89891 3.71963 4.60324 6.1357 4.05545 10.5179C3.98505 11.0804 4.64724 11.4329 5.07623 11.06C6.65031 9.69071 8.27719 8.83999 9.96566 8.49928C10.2363 8.44463 10.508 8.40285 10.7818 8.37392L11.0656 8.34928V10.595L11.0711 10.6829C11.1371 11.1682 11.741 11.3964 12.1128 11.0407ZM10.8984 4.4857L12.1656 4.4032V2.22498L15.9562 5.85499L12.1656 9.48713L12.1656 7.17606L10.674 7.30677H10.6652C8.79198 7.50285 7.0243 8.23356 5.35563 9.45178C5.68342 8.01713 6.24332 6.9382 6.97921 6.1657C7.89219 5.20677 9.16817 4.61963 10.8984 4.48463V4.4857ZM3.49996 1.57141C2.77062 1.57141 2.07116 1.85362 1.55544 2.35595C1.03973 2.85828 0.75 3.53958 0.75 4.24998L0.75 12.8214C0.75 13.5318 1.03973 14.2131 1.55544 14.7155C2.07116 15.2178 2.77062 15.5 3.49996 15.5L12.2998 15.5C13.0292 15.5 13.7286 15.2178 14.2443 14.7155C14.7601 14.2131 15.0498 13.5318 15.0498 12.8214V11.75C15.0498 11.6079 14.9918 11.4717 14.8887 11.3712C14.7856 11.2707 14.6457 11.2143 14.4998 11.2143C14.3539 11.2143 14.214 11.2707 14.1109 11.3712C14.0077 11.4717 13.9498 11.6079 13.9498 11.75V12.8214C13.9498 13.2477 13.776 13.6565 13.4665 13.9578C13.1571 14.2592 12.7374 14.4286 12.2998 14.4286L3.49996 14.4286C3.06236 14.4286 2.64268 14.2592 2.33325 13.9578C2.02382 13.6565 1.84998 13.2477 1.84998 12.8214L1.84998 4.24998C1.84998 3.82374 2.02382 3.41496 2.33325 3.11356C2.64268 2.81216 3.06236 2.64284 3.49996 2.64284L6.79991 2.64284C6.94577 2.64284 7.08567 2.5864 7.18881 2.48593C7.29195 2.38547 7.3499 2.24921 7.3499 2.10712C7.3499 1.96504 7.29195 1.82878 7.18881 1.72832C7.08567 1.62785 6.94577 1.57141 6.79991 1.57141L3.49996 1.57141Z" fill="#212325"/>
</svg>
