<svg width="18" height="18" viewBox="0 0 18 18" fill="none" xmlns="http://www.w3.org/2000/svg">
<path fill-rule="evenodd" clip-rule="evenodd" d="M8.81244 3.375C8.74419 3.375 8.57619 3.39375 8.48694 3.57225L7.11744 6.3105C6.90069 6.74325 6.48294 7.044 5.99994 7.113L2.93394 7.55475C2.73144 7.584 2.66244 7.734 2.64144 7.797C2.62269 7.85775 2.59269 8.01225 2.73219 8.14575L4.94919 10.2758C5.30244 10.6155 5.46294 11.1053 5.37894 11.5845L4.85694 14.592C4.82469 14.7803 4.94244 14.8897 4.99494 14.9272C5.05044 14.9692 5.19894 15.0525 5.38269 14.9565L8.12394 13.5352C8.55594 13.3125 9.07044 13.3125 9.50094 13.5352L12.2414 14.9557C12.4259 15.051 12.5744 14.9677 12.6307 14.9272C12.6832 14.8897 12.8009 14.7803 12.7687 14.592L12.2452 11.5845C12.1612 11.1053 12.3217 10.6155 12.6749 10.2758L14.8919 8.14575C15.0322 8.01225 15.0022 7.857 14.9827 7.797C14.9624 7.734 14.8934 7.584 14.6909 7.55475L11.6249 7.113C11.1427 7.044 10.7249 6.74325 10.5082 6.30975L9.13719 3.57225C9.04869 3.39375 8.88069 3.375 8.81244 3.375ZM5.21019 16.125C4.90044 16.125 4.59294 16.0275 4.32969 15.8355C3.87519 15.5025 3.65244 14.9527 3.74919 14.3993L4.27119 11.3918C4.29069 11.28 4.25244 11.1667 4.16994 11.0872L1.95294 8.95725C1.54494 8.5665 1.39869 7.989 1.57119 7.45275C1.74519 6.9105 2.20569 6.52275 2.77344 6.44175L5.83944 6C5.95794 5.9835 6.05994 5.91075 6.11094 5.80725L7.48119 3.06825C7.73394 2.5635 8.24394 2.25 8.81244 2.25C9.38094 2.25 9.89094 2.5635 10.1437 3.06825L11.5147 5.8065C11.5664 5.91075 11.6677 5.9835 11.7854 6L14.8514 6.44175C15.4192 6.52275 15.8797 6.9105 16.0537 7.45275C16.2262 7.989 16.0792 8.5665 15.6712 8.95725L13.4542 11.0872C13.3717 11.1667 13.3342 11.28 13.3537 11.391L13.8764 14.3993C13.9724 14.9535 13.7497 15.5033 13.2944 15.8355C12.8332 16.1737 12.2324 16.2195 11.7232 15.954L8.98344 14.5343C8.87619 14.4788 8.74794 14.4788 8.64069 14.5343L5.90094 15.9548C5.68194 16.0688 5.44569 16.125 5.21019 16.125Z" fill="#212325"/>
</svg>
