<svg width="29" height="23" viewBox="0 0 29 23" fill="none" xmlns="http://www.w3.org/2000/svg">
<path d="M9.65129 23C6.41629 23 3.40072 22.0591 0.862549 20.4356C3.01754 20.5751 6.82062 20.2411 9.18613 17.9848C5.62763 17.8215 4.02281 15.0923 3.81349 13.926C4.11584 14.0426 5.55785 14.1826 6.37189 13.856C2.27845 12.8296 1.65048 9.23732 1.79003 8.14097C2.55755 8.67749 3.86 8.8641 4.37168 8.81744C0.557342 6.08823 1.92957 1.98276 2.60406 1.09635C5.34137 4.88867 9.44375 7.01857 14.5189 7.13704C14.4232 6.71736 14.3727 6.28042 14.3727 5.83164C14.3727 2.61092 16.976 0 20.1872 0C21.8651 0 23.377 0.712754 24.4382 1.85284C25.5595 1.59011 27.2469 0.975068 28.0718 0.443205C27.656 1.93611 26.3615 3.18149 25.5784 3.64308C25.585 3.65878 25.5721 3.62731 25.5784 3.64308C26.2663 3.53904 28.1273 3.18137 28.8625 2.68256C28.499 3.52125 27.1265 4.91573 26.0003 5.69642C26.2098 14.9381 19.139 23 9.65129 23Z" fill="#47ACDF"/>
</svg>
